/* XPM */
static char *_1846_4dda759415652b699572e13e7366d6a0eda3f84785ed9dacb779e5a65b4b178f[] = {
/* columns rows colors chars-per-pixel */
"48 48 226 2 ",
"   c #010101",
".  c #090503",
"X  c #060902",
"o  c #090B03",
"O  c #0C0C0A",
"+  c #150401",
"@  c #160805",
"#  c #1B0901",
"$  c #170A07",
"%  c #0D1205",
"&  c #1C150E",
"*  c #14160A",
"=  c #0C1215",
"-  c #1A1B1C",
";  c #161717",
":  c #271106",
">  c #381308",
",  c #241B14",
"<  c #241915",
"1  c #391C15",
"2  c #380D05",
"3  c #172405",
"4  c #1A240A",
"5  c #1D2D08",
"6  c #1F3107",
"7  c #22280D",
"8  c #24330C",
"9  c #243808",
"0  c #2A251B",
"q  c #372919",
"w  c #293511",
"e  c #2B3B12",
"r  c #37381B",
"t  c #031C24",
"y  c #1A1D20",
"u  c #00212A",
"i  c #1A2A2E",
"p  c #2C2C2B",
"a  c #222224",
"s  c #3D322E",
"d  c #353327",
"f  c #353535",
"g  c #3A3533",
"h  c #373838",
"j  c #3C3C3C",
"k  c #302E2D",
"l  c #491C16",
"z  c #591912",
"x  c #43130E",
"c  c #7C1303",
"v  c #621212",
"b  c #77130E",
"n  c #47241B",
"m  c #502C18",
"M  c #732818",
"N  c #483527",
"B  c #57362A",
"V  c #433B35",
"C  c #502A23",
"Z  c #70322C",
"A  c #38570E",
"S  c #374617",
"D  c #344B12",
"F  c #3F640D",
"G  c #39412B",
"H  c #414D1D",
"J  c #425919",
"K  c #4A760F",
"L  c #49671D",
"P  c #48671B",
"I  c #516C1E",
"U  c #4C7710",
"Y  c #577D1A",
"T  c #42680E",
"R  c #55412D",
"E  c #475223",
"W  c #594632",
"Q  c #434C21",
"!  c #624C36",
"~  c #70573A",
"^  c #4D6A21",
"/  c #546B24",
"(  c #517521",
")  c #5C7C21",
"_  c #5A7326",
"`  c #63782A",
"'  c #003F52",
"]  c #103943",
"[  c #01475A",
"{  c #344C53",
"}  c #36484E",
"|  c #315D73",
" . c #316A79",
".. c #005065",
"X. c #444444",
"o. c #5B5553",
"O. c #6A5743",
"+. c #695246",
"@. c #6D6559",
"#. c #872903",
"$. c #972C07",
"%. c #9A3100",
"&. c #9F3109",
"*. c #882E1A",
"=. c #952D18",
"-. c #99321C",
";. c #A53306",
":. c #A4331F",
">. c #A0270D",
",. c #873828",
"<. c #953D2B",
"1. c #A93622",
"2. c #831808",
"3. c #FD3637",
"4. c #EC3130",
"5. c #CC3829",
"6. c #914136",
"7. c #A94A36",
"8. c #B54B36",
"9. c #B4513B",
"0. c #B9513C",
"q. c #B2432F",
"w. c #C24D3D",
"e. c #C0543D",
"r. c #D2583F",
"t. c #BB5342",
"y. c #B95149",
"u. c #A95543",
"i. c #836548",
"p. c #86684B",
"a. c #937659",
"s. c #8D6F53",
"d. c #B16D53",
"f. c #A26C5E",
"g. c #CC554B",
"h. c #F94C4B",
"j. c #ED5753",
"k. c #C66452",
"l. c #D56C57",
"z. c #D6725D",
"x. c #C7694F",
"c. c #DE7C63",
"v. c #ED6A69",
"b. c #FC6969",
"n. c #F47571",
"m. c #EF6352",
"M. c #538511",
"N. c #568A11",
"B. c #5F8123",
"V. c #628426",
"C. c #658B23",
"Z. c #688C27",
"A. c #689023",
"S. c #6E962A",
"D. c #6B8A31",
"F. c #698250",
"G. c #68804F",
"H. c #B68759",
"J. c #829D67",
"K. c #978263",
"L. c #B89872",
"P. c #AC8D6C",
"I. c #C89A6C",
"U. c #D69774",
"Y. c #D09166",
"T. c #ED8B73",
"R. c #D8A878",
"E. c #D9A068",
"W. c #E2AC79",
"Q. c #E4B17E",
"!. c #EAB47E",
"~. c #F0B172",
"^. c #C28F5C",
"/. c #187995",
"(. c #3D7883",
"). c #407D85",
"_. c #118BB0",
"`. c #428E93",
"'. c #0293C3",
"]. c #089ECB",
"[. c #009BD3",
"{. c #0097D1",
"}. c #048FC2",
"|. c #0AA0CC",
" X c #06A0C8",
".X c #02AADD",
"XX c #03A9D4",
"oX c #00AEE1",
"OX c #01B2E6",
"+X c #01B4EB",
"@X c #07B9EA",
"#X c #00BBF4",
"$X c #00BBF6",
"%X c #00C5FF",
"&X c #05CBFA",
"*X c #01DBFF",
"=X c #00EBFF",
"-X c #D18F85",
";X c #FA958F",
":X c #CFBD91",
">X c #EBB782",
",X c #E5B988",
"<X c #F3B986",
"1X c #F1AD8A",
"2X c #D4B5AF",
"3X c #EBB4B3",
"4X c #F9C38C",
"5X c #FBCD9A",
"6X c #F6C795",
"7X c #FCD39C",
"8X c #EFC28C",
"9X c #FED7A1",
"0X c #FFDDA6",
"qX c #FBD9A5",
"wX c #FFE3AA",
"eX c #FFEDB1",
"rX c #FFF4B9",
"tX c #D6CA9F",
"yX c #DFCAC4",
"uX c #EFC9C9",
"iX c #FFFAC5",
"pX c #FFFFD2",
"aX c #F3E1DE",
"sX c #DFFFFF",
"dX c #FFFBFB",
"fX c #E3EDEE",
/* pixels */
"S.S.S.N.N.N.A.A.A.N.N.N.N.N.N.A.A.A.A.A.A.A.A.A.A.A.A.N.N.N.A.A.A.N.N.N.N.N.N.A.A.A.N.N.N.N.N.N.",
"S.S.S.N.N.N.A.A.A.N.N.N.N.N.N.A.A.A.A.A.A.A.A.A.A.A.A.N.N.N.A.A.A.N.N.N.N.N.N.A.A.A.N.N.N.N.N.N.",
"S.S.S.N.N.N.A.A.A.N.U O X X X o X X S C.M.7 . o O o o X X o   P A.N.N.N.N.N.N.A.A.A.N.N.N.N.N.N.",
"S.S.S.S.S.S.A.A.A.M.Y .     .       e A.` 3         .         A N.N.N.N.A.A.A.A.A.A.S.S.S.N.N.N.",
"S.S.S.S.S.S.A.A._ J A B Z o.@.o.l 2 q / E q m n l l C C C v v m J P M.N.A.A.A.A.A.A.S.S.S.N.N.N.",
"S.S.S.S.S.S.A.C.7   : b.n.uXdXaX7.$.z   $ 6.g.0.e.w.l.Y.m.3.3.z   o K N.A.A.A.A.A.A.S.S.S.N.N.N.",
"A.A.A.S.S.S.N.M.8   - v.v.3XdXuX7.=.z @ & ,.g.9.9.9.k.z.j.3.3.v . % K M.C.A.A.A.A.A.S.S.S.S.S.S.",
"A.A.A.S.S.S.N.N.K P S 1 1 u.;X;X2X2XP.Z <.7.9.0.y.y.g.h.v.3XyXd.<.Z , 3 J C.A.A.A.A.S.S.S.S.S.S.",
"A.A.A.S.S.S.N.N.N.M.U X . Z b.n.aXsX-Xw.w.0.9.t.g.y.j.3.n.fXsX-Xg.7.#   D C.Z.A.A.A.S.S.S.S.S.S.",
"A.A.A.N.N.N.N.N.K T A : < <.b.n.3XuX-Xw.w.9.9.t.y.y.g.h.n.2XyXd.q.<.z x N L ( Z.A.A.A.A.A.A.A.A.",
"A.A.A.N.N.N.M.M.5   $ -.:.t.c.l.v.b.b.h.h.0.7.9.y.9.k.c.l.l.l.q.=.:.3.3.b .   Y A.A.A.A.A.A.A.A.",
"A.A.A.N.N.N.N.M.6   @ =.:.9.z.l.n.b.j.h.j.g.9.0.t.7.k.l.l.l.z.7.*.:.4.3.b     B.A.A.A.A.A.A.A.A.",
"N.N.N.N.N.N.S.S.w   # =.-.M n B k.v.T.<X1XW.U.U.Y.Y.d.y.k.n.T.Z : x 1.5.z   X F ( ( A.A.A.N.N.N.",
"N.N.N.N.N.N.S.A.8   # -.:.1   @ y.l.1XpXpXwX9X5X,XQ.l.q.k.T.;XB   . *.1.l     ^ ( ( A.A.A.N.N.N.",
"N.N.N.N.N.N.S.S.S 4 , M M >   < d.T.U.:X:X6X5X8X,XR.d.M u.T.1XB   . M *.1 * * ^ ( ( A.A.A.N.N.N.",
"N.N.N.N.N.N.A.A.C.V._ X . .   0 :XiXa.  0 L.0X6X7X6XW   q H.E.m     .   e ^ ^ F.F.F.F.F.F.A.A.A.",
"N.N.N.N.N.N.A.A.A.S.V.        0 tXpXK.  & L.0X5X7X5XR   0 H.E.N         D ^ ( F.F.F.F.F.F.A.A.A.",
"N.N.N.N.N.N.A.A.A.S.Z.J S 4   0 :XiXa.  & L.0X5X7X6XB   q H.E.N   X d G A ( ( F.F.F.F.F.F.A.A.A.",
"N.N.N.N.N.N.A.A.A.A.A.A.S.E   0 ,XeXa.  & L.0X5X9X5XV   q ^.E.N   % I ( ( ( ( J.J.J.F.F.F.( ( ( ",
"N.N.N.N.N.N.A.A.A.A.A.A.D.E   < L.:Xp.- d L.9X6X5X6X! , m a.H.m   % L ( ( ( ( J.J.J.F.F.F.( ( ( ",
"N.N.N.N.N.N.A.A.A.A.A.A.S.E   . < p W H.I.R.>X>X>X>XH.H.~ q : %   % L ( ( ( ( J.J.J.F.F.F.( ( ( ",
"N.N.N.A.A.A.A.A.A.A.A.A.` Q         R 7X4X8X!.!.>X!.W.~.s.%       % I ( ( ( ( ( ( ( ( ( ( S.A.A.",
"N.N.N.A.A.A.A.A.A.A.C.A S 0 ; ; ; ; N p.p.i.i.i.i.~ ~ ~ R , ; ; ; ; e S J ( ( ( ( ( ( ( ( A.A.A.",
"N.N.N.A.A.A.A.A.A.A.B..   ; X.j h h y   .         X     O f j h } k     e ( ( ( ( ( ( ( ( A.A.A.",
"N.N.N.A.A.A.A.A.Z.V.) % O < j h h j a                   = f j h j f O O S ` _ S.S.S.A.A.Z.N.N.N.",
"N.N.N.A.A.A.A.Z.A r d P.P.+.a p h h f p p k k k k k k p k h h k a g K.L.W d r Z.S.S.A.A.A.N.N.N.",
"N.N.N.A.A.A.A.C.7   , qXeXa.= a f h j X.X.X.X.X.X.X.X.X.X.h h p y V 6XrX@..   B.S.S.A.A.A.N.N.N.",
"A.A.A.A.A.A.A.C.8   , 6XqXp.t p f h h j j X.j X.} V j j h h h k y j ,XwX~ .   V.S.S.N.N.N.N.N.N.",
"A.A.A.A.A.A.A.C.8   , 6XqX@.; p f f g h h j j j j V h h f f f k y V ,XwXO.. . V.S.S.N.N.N.N.N.N.",
"A.A.A.Z.A.A.A.C.8   & 6XqXs.= k k s s h h j X.j j X.h h f s s k y g ,XeXO.    V.S.S.N.N.N.N.N.N.",
"N.N.N.N.N.K 8 w ~ P.P.>X,X+.X t /._.| f h j j j j j j g { /._.] O 0 R.8XL.P.a.w 7 A A.A.Z.N.N.N.",
"N.N.N.N.N.F   . a.eX5XW.W.!   t '.%X/.n s s N V g V g C { oX%X'   * I.W.4X0X5X*   6 A.A.S.N.N.N.",
"N.N.N.N.N.T   . a.qX8X!.W.!   u '.%X_.} } } { { { { { }  ..X$X'   & I.!.>X7X,X&   8 Z.S.Z.N.N.N.",
"A.A.A.A.A.I   . p.4XW.Q.W.! X = '.$X X].|.|.|.|.|.|.|.].|.oX$X'   & I.!.Q.>XR.O   8 N.N.N.N.N.N.",
"A.A.A.A.A.L   X s.4X>X4X<X!   t _.+XoX+XOXOXOXOXOXOXOXOXOX.XOX[   , R.4X<X4XW.*   7 N.N.N.N.N.N.",
"A.A.A.A.Z.N.D D N ! W ! W 0   t ].&XOX.X.X.XOX.XOX.X.X.XoX@X&X[   X B ! W W R S A / N.N.N.N.N.N.",
"N.N.N.A.A.A.M.M.6             u XX=X@X.XoXoXoXoXoXOXoX.XoX%X*X[               U M.M.N.N.N.N.N.N.",
"N.N.N.A.A.A.N.M.9   . O X     u XX*X@XoXoX.X.XoX.X.XoX.XOX&X*X[     X . X . % U N.N.N.N.N.N.N.N.",
"N.N.N.A.A.A.N.N.M.) ) V./ r   t XX*X@XoX.X}.}.}._.}.XXoXOX&X*X[   % I V.) ) ) M.N.N.N.N.N.N.N.N.",
"A.A.A.A.A.A.N.N.N.S.S.S.C.E   u @X=X%X$X+X[.{.{.[.[.oX$X%X*X=X..  % V.S.N.N.N.N.N.N.A.A.A.N.N.N.",
"A.A.A.A.A.A.N.N.N.S.S.S.C.Q   = (.`.`.`. . .| | | |  .).`.`.`.i   * B.S.N.N.N.N.N.N.A.A.A.N.N.N.",
"A.A.A.A.A.A.N.N.N.S.S.S.C.Q   @ #.;.$.&.&.2.c c 2.c $.&.&.;.;.>   * B.S.N.N.N.N.N.N.A.A.A.N.N.N.",
"N.N.N.A.A.A.A.A.S.N.N.N.V.H   # #.;.%.%.%.2.c c c c #.;.%.%.;.>   % V.S.S.S.S.A.A.A.N.N.N.N.N.N.",
"N.N.N.A.A.A.A.A.Z.N.N.N.A.V.D._ : # # # # + + + + + $ # # $ # A M.D.S.S.S.S.S.A.A.A.N.N.N.N.N.N.",
"N.N.N.A.A.A.A.A.A.N.N.M.A.A.A.` o                             A N.S.S.S.S.S.S.A.A.A.N.N.N.N.N.N.",
"N.N.N.N.N.N.N.N.N.A.A.A.A.A.S.M.w 4 4 4 4 3 3 3 3 3 3 3 4 4 * F N.N.N.N.S.S.S.N.N.N.A.A.A.N.N.N.",
"N.N.N.N.N.N.N.N.N.A.A.A.A.A.A.A.A.A.A.A.A.N.N.N.N.N.N.N.N.N.N.N.N.N.N.N.S.S.S.N.N.N.A.A.A.N.N.N.",
"N.N.N.N.N.N.N.N.N.A.A.A.A.A.A.A.A.A.A.A.A.N.N.N.N.N.N.N.N.N.N.N.N.N.N.N.S.S.S.N.N.N.A.A.A.N.N.N."
};
