/* XPM */
static char *_6359_542077afabda54bc09ccc3618c98744086dc97f779b0f26c7e55556851ec277d[] = {
/* columns rows colors chars-per-pixel */
"48 48 189 2 ",
"   c #060606",
".  c #070807",
"X  c #080807",
"o  c #070708",
"O  c #0A0A0A",
"+  c #11110E",
"@  c #131311",
"#  c #191A15",
"$  c #1E1F1B",
"%  c #21231D",
"&  c #242720",
"*  c #272922",
"=  c #2A2C24",
"-  c #2E2F29",
";  c #2E3127",
":  c #2E3229",
">  c #34372F",
",  c #36392F",
"<  c #343825",
"1  c #3B3E33",
"2  c #3B5F0C",
"3  c #375017",
"4  c #395317",
"5  c #3E5C14",
"6  c #3B5419",
"7  c #3D620D",
"8  c #3F6111",
"9  c #3D4C28",
"0  c #3E4234",
"q  c #425F1B",
"w  c #40660F",
"e  c #436B0D",
"r  c #47730E",
"t  c #416115",
"y  c #45631B",
"u  c #4A651A",
"i  c #4E6B1C",
"p  c #456D10",
"a  c #506E1E",
"s  c #4D7516",
"d  c #4F7E10",
"f  c #4C7119",
"g  c #507F12",
"h  c #55761D",
"j  c #557C1D",
"k  c #587A1E",
"l  c #455C23",
"z  c #485E22",
"x  c #445728",
"c  c #455829",
"v  c #4A5B2C",
"b  c #415526",
"n  c #464A3D",
"m  c #494C3F",
"M  c #43463A",
"N  c #495637",
"B  c #4D5C35",
"V  c #47503A",
"C  c #4A543A",
"Z  c #4C5B3A",
"A  c #455237",
"S  c #515C3C",
"D  c #496321",
"F  c #4D622A",
"G  c #4C6825",
"H  c #52692D",
"J  c #537521",
"K  c #567A24",
"L  c #587F22",
"P  c #58772D",
"I  c #5D7D2F",
"U  c #4F6133",
"Y  c #516435",
"T  c #546B32",
"R  c #5A673F",
"E  c #5A6A3E",
"W  c #58683B",
"Q  c #5A7533",
"!  c #627E2F",
"~  c #617A34",
"^  c #62773C",
"/  c #657A3E",
"(  c #4B4F40",
")  c #4E5344",
"_  c #515546",
"`  c #545B44",
"'  c #535748",
"]  c #555A4A",
"[  c #595E4D",
"{  c #596345",
"}  c #5B614F",
"|  c #5C6B43",
" . c #5E6351",
".. c #626E4C",
"X. c #677748",
"o. c #68754E",
"O. c #697B47",
"+. c #616653",
"@. c #646955",
"#. c #666C59",
"$. c #696E5A",
"%. c #6C725D",
"&. c #6C7657",
"*. c #707F57",
"=. c #727C5B",
"-. c #6F7561",
";. c #717662",
":. c #747A65",
">. c #787F67",
",. c #767B68",
"<. c #797E6A",
"1. c #7C7F70",
"2. c #538413",
"3. c #568A11",
"4. c #588A14",
"5. c #5B821E",
"6. c #5B891C",
"7. c #5E8324",
"8. c #5D8923",
"9. c #608520",
"0. c #658C23",
"q. c #688E25",
"w. c #64842C",
"e. c #698D2A",
"r. c #658D2F",
"t. c #689023",
"y. c #6E962A",
"u. c #71942E",
"i. c #648534",
"p. c #678936",
"a. c #6B8A33",
"s. c #6C8A3E",
"d. c #7C9B3D",
"f. c #749531",
"g. c #6A8642",
"h. c #728B41",
"j. c #748D4B",
"k. c #798F4F",
"l. c #70824C",
"z. c #7F9D40",
"x. c #769048",
"c. c #758755",
"v. c #75805C",
"b. c #7B8E5D",
"n. c #7A905A",
"m. c #7E8967",
"M. c #7C826C",
"N. c #7F896B",
"B. c #7E9361",
"V. c #7E8472",
"C. c #8BA14F",
"Z. c #8DA250",
"A. c #96A75B",
"S. c #96A85C",
"D. c #818B6E",
"F. c #818E65",
"G. c #84936D",
"H. c #809265",
"J. c #818672",
"K. c #848A75",
"L. c #868C79",
"P. c #898E7B",
"I. c #879571",
"U. c #8B917D",
"Y. c #8A9873",
"T. c #8E9481",
"R. c #919684",
"E. c #939986",
"W. c #969B8A",
"Q. c #999E8D",
"!. c #9A9E90",
"~. c #9BA08F",
"^. c #9DA292",
"/. c #A1A596",
"(. c #A2A698",
"). c #A5A99C",
"_. c #A9AC9F",
"`. c #AAAEA1",
"'. c #AEB1A5",
"]. c #B2B5AB",
"[. c #B6B8AE",
"{. c #B0B2A6",
"}. c #B7BAB0",
"|. c #BABCB4",
" X c #BDC0B7",
".X c #BEC1B9",
"XX c #C2C4BD",
"oX c #C5C7C1",
"OX c #C7C8C2",
/* pixels */
"y.y.y.3.3.3.t.t.t.3.3.3.3.3.3.t.t.t.t.t.f.z.Z.A.A.Z.Z.z.d.y.u.q.y.3.4.3.3.3.3.t.t.t.3.3.3.3.3.3.",
"y.y.y.3.3.3.t.t.t.3.3.3.3.3.3.t.t.t.q.y.s.X.| R W ! 0.3.3.3.q.q.t.3.3.3.3.3.3.t.t.t.3.3.3.3.3.3.",
"y.y.y.3.3.3.t.t.t.3.3.3.3.3.3.t.t.r.l.&.} ] +.%.+.} S T T 2.t.t.0.3.3.3.3.3.3.t.t.t.3.3.3.3.3.3.",
"y.y.y.y.y.y.t.t.t.3.3.3.3.3.3.t.e.v.;.@.+.<.W._.W.M.#.[ _ Y 3.3.3.3.3.3.t.t.t.t.t.t.y.y.y.3.3.3.",
"y.y.y.y.y.y.t.t.t.3.3.3.3.3.3.0.O.M.J.J.E.'.|.XX{.T.M.=._ _ H 3.3.3.3.3.t.t.t.t.t.t.y.y.y.3.3.3.",
"y.y.y.y.y.y.t.t.t.3.3.3.3.3.3.a.%.L.^.[.}. XXXXX`.Q.P.<.[ _ _ T 3.3.3.3.t.t.t.t.t.t.y.y.y.3.3.3.",
"t.t.t.y.y.y.3.3.3.3.3.3.3.3.6.o.%.W.'.|.|.}. X].Q.W.R.J.@._ ) ) ! j k 3.t.t.t.t.t.t.y.y.y.y.y.y.",
"t.t.t.y.y.y.3.3.3.3.3.3.3.I { } M.Q.)././.Q.R.P.M.J.K.<.@.' ( _ _ _ _ B 0.t.t.t.t.t.y.y.y.y.y.y.",
"t.t.t.y.y.y.3.3.3.3.3.6.Q ) ) } K.E.!.Q.P.J.+.+.} +.%.$.[ ' +.;.=.$.[ ' { 0.t.t.t.t.y.y.y.y.y.y.",
"t.t.t.3.3.3.3.3.4.s.b.c.#.} ) } ,.K.Q.U.=.D.K.:.} ) ' ] _  .M.L.K.;.#.} [ F 0.t.t.t.t.t.t.t.t.t.",
"t.t.t.3.3.3.3.3.p.W./.W.P.K.:.} $.J.Q.K.K.)._.Q.J.] _ ) ' =.K.U.P.<.#.@.+.N a ! t.t.t.t.t.t.t.t.",
"t.t.t.3.3.3.3.6.Y.].oX|.[.(.Q.U.=.,.U.T.Q.(.~./.L.;.` _ [ >.U.U.L.$.+.@.[ ' q u h 0.t.t.t.t.t.t.",
"3.3.3.3.3.3.y.j.`.XXoXXX|.{.^.W.,.$.J.~./.W.W.^.K.M.[ _ +.<.U.U.:.@.@. ._ ' 9 6 3 6 6.q.q.3.3.3.",
"3.3.3.3.3.3.y.F.`.|..X|.].`.^.P.@.+.U.].{._._._.Q.K.+._ @.L.R.:.@.#.#.[ ' ' V 4 6 6 u h 0.3.3.3.",
"3.3.3.3.3.3.~ -.K.^.`.^.P.T.E.:.[ $.)..X}.}.|.]./.K.+._ +.K.J.+.+.=.$.} ' _ ' 9 6 4 y u j 3.3.3.",
"3.3.3.3.3.L ` ) #.P.T.:.@.-.M.@.] ;.{.}.}.|.|._.U.M.#.[ ] :.;.+.@.,.$.] ' ) _ ) _ _ C B Z 6.t.t.",
"3.3.3.4.K S +.@.:.L.M.#. .#.=.#.] ,./.).[.}._./.T.,.@. .] $.;.+.#.,.@._ _ _ _ _ ' _ ' C Z i 0.t.",
"3.3.3.4.R ,.P.U.L.M.:.M.K.J.L.>.+.J.R.R.{.).W.E.M.%. . .] +.#.+.#.#.' _ @.[ _ +.+.' ] C Z y 5.t.",
"3.3.3.9.K._.{.).U.J.K.~.{.W.K.>.+.J.K.D.E.T.K.M.$.#.[ [ _ ' [ @. .' ) [ ;.[ ] ;.$.] _ ' N 4 y i ",
"3.3.4.j._.[.{./.K.P.W.{.].(.K.:.+.>.<.,.D.L.>.+.+.+.] [ ) _ ' [ ' ) [ ;.%.] [ $.} ) ] [ A 4 y h ",
"3.3.8.D.{.].}./.L.Q.`.|.[.~.J.#.] #.#.;.>.J.;.] ] ] ] ] ) _ ) ' ] } -.;.%.[ [ $.+.+.+.] m 6 q h ",
"3.3.i.L.`.XX.XW.K.Q.].}.{.M.[ +.[ _ ] +.#.%.+.' [ [ _ ' ) ) ) ]  .$.;.;.%.] +.;.;.;.#.] C y i q.",
"3.3.i.E.{.XX`.K.J._.|.`.!.$. .J.L.<.#._ _ +.[ '  .%. .) ) ) ) ' ] [ @.%.;.] } ;.=.$.$.[ _ q a q.",
"3.3.g.Q.].|.E.<.R.[.|.(.J.+.1.{.XXXX_.;.@.U.R.D.J.M.:.@.' _ ' ] ] [ ] ] [ ' } ;.$.@.@.} ' q a 0.",
"3.3.l.~.`.^.L.N.(.`._.(.K.@./.OXOX.X}./.R.{.}.{.`./.K.>.+.' %.M.>.;.$.} ' ' } ;.$. . .[ ] 9 e 3.",
"3.2.m.U.U.L.M.K._.^.U.U.L.K.[.OX.X].{.!.!.{.|.}.{.`.U.%.[ #.L.L.R.L.M.=.@._ _ +.@.[ [ [ } B w 3.",
"3.f U.K.N.M.%.U.).Q.K.<.=.T.}.XX.X{.).W.(.[.}.|. X[.^.@.] L.U.K.P.L.K.J.@._ _ _ ' ] ] [ [ Z 7 3.",
"0./ R.L.$.@.$.Q.).E.M.#.$.U.`.|.].).W.!.}.}..X.X}.{.!.%.] U.U.U.E.U.J.,._ _ ' ' _ ] ]  .} ` 8 3.",
"t.c.=..._ [ J./.).L. .+.:.L.U.~.!.K.:.T.{..X.X{.^.K.M.#._ =.L.K.K.M.=.} _ ] [ ] ] ] ' [ [ ` 8 3.",
"r.h./ B ) @.R.).).<.] #.>.>.>.1.-.-.@.#.;.K.V.,.:.%.%.+._ $.$.%.,.%.+.[ _ '  .$.@.' ] [ } S t 3.",
"4.8.L q S :.Q.R.E.=._ &.<.J.P.L.]  . .+.:.:.:.1.,.+.[ +.[ @.#.#.$.@.} ] ] _ +.;.@._ ] ` { v t 3.",
"3.4.4.2.D M.E.J.<.$. .J.U.Q.`./.#.' [ :.`.{.Q.P.<.] )  .[ +.>.M.%. .] ] ] ' [ ;.@.) ` F F q 7 3.",
"3.3.3.3.3.*.M.;.@.} :.R.).|.[.Q.:.V.P.1.E.!.,.-.} ) $.$.'  .V.M.,. .` } } _ [ #.@.) ` D u 7 7 3.",
"t.t.t.t.t.O.| } [ %.E.'.|.|.'.M.1.`.].K.) 1 ( ( ( ' T.T. .[ >.M.M. .]  .#.] ]  .[ ) ] 5 7 7 e 3.",
"t.t.t.t.q.e.G B ] ,.`.XX|.[.W.@.P.).J.] - O O o o % ' ;.$. . .-.%. . . .%.[ _ [ [ ' { 8 7 7 2.3.",
"t.t.t.t.q.q.f x ] M.{.[.(.(.1. .V.,.' - +   o   o   @ - -.^.V.$.@.$. . .#.[ ] ] [  .U 7 7 r 3.3.",
"3.3.3.t.t.t.g 5 ` T.(./.W.P.#.#.} M $ O   . . . o o   o ) ^.^.P.@.$.} [ } ] ` C { ..8 7 2 2.3.3.",
"3.3.3.t.t.t.4.e R T.Q.E.K.#.;.R.$.$       . . . o o o   $ ' L.-. .@.} ] ` ` Z v F t 7 7 7 3.3.3.",
"3.3.3.t.t.t.3.3.^ K.E.P.-.;.^.K._ #   o .   . .   o o o   $ _ _ } } } _ B Y Z t 8 7 7 e 2.3.3.3.",
"t.t.t.t.t.t.3.3.i.N.K.,.-.!.}.-.m +         . . o o o o o o ( :.M.} ` ` l l D 5 7 7 j 0.0.3.3.3.",
"t.t.t.t.t.t.3.3.8.j.=.,.!.'.T. .M O     . . . O + # $ # # % ) ^.E.;.[ ] q t q 2 2 7 0.t.t.3.3.3.",
"t.t.t.t.t.t.3.3.3.u.X.K.^.^.V.] , .     . . O + & - 1 ( , > } `./.M.+.[ x 7 7 2 e 2.t.t.t.3.3.3.",
"3.3.3.t.t.t.t.t.q.3.P -.K.U.-.] = . O + # $ % = > (  .-.-.' ' T.E.:.[ [ v a G a 0.t.3.3.3.3.3.3.",
"3.3.3.t.t.t.t.t.t.3.6.&.-.;.%.' #   O * 1 n ' [  .1.T.T.V. .] -.,.$.' [ l a u h t.t.3.3.3.3.3.3.",
"3.3.3.t.t.t.t.t.t.3.3.7.@.%.+.V O O % 0 n ] -.M.V.T.T.1.%.} } @.#.} ] S i h J 9.t.t.3.3.3.3.3.3.",
"3.3.3.3.3.3.3.3.3.t.t.t.w.E ] ' < 0  .%.-.,.V.T.W.W.T.T.V.;.#.[ ] ` T s q.t.y.3.3.3.t.t.t.3.3.3.",
"3.3.3.3.3.3.3.3.3.t.t.t.t.q.! ~ / m.N.U.R.!.~.~.^.!.!.!.P.K.N...T j 4.3.y.y.y.3.3.3.t.t.t.3.3.3.",
"3.3.3.3.3.3.3.3.3.t.t.t.q.t.t.t.t.p.h.n.N.N.N.I.N.B.B.m.n.j.r.6.3.3.3.3.y.y.y.3.3.3.t.t.t.3.3.3."
};
