/* XPM */
static char *a96d042e5e6f4868b2beca2855cb99cc1AwqxI9RvhKZa9xA[] = {
/* columns rows colors chars-per-pixel */
"48 48 7 1 ",
"  c #517521",
". c #667B2A",
"X c #568A11",
"o c #689023",
"O c #6E962A",
"+ c #698250",
"@ c #829D67",
/* pixels */
"OOOXXXoooXXXXXXooooooooooooXXXoooXXXXXXoooXXXXXX",
"OOOXXXoooXXXXXXooooooooooooXXXoooXXXXXXoooXXXXXX",
"OOOXXXoooXXXXXXooooooooooooXXXoooXXXXXXoooXXXXXX",
"OOOOOOoooXXXXXXooooooXXXoooXXXXXXXXXooooooOOOXXX",
"OOOOOOoooXXXXXXooooooXXXoooXXXXXXXXXooooooOOOXXX",
"OOOOOOoooXXXXXXooooooXXXoooXXXXXXXXXooooooOOOXXX",
"oooOOOXXXXXXXXXoooXXXXXXoooXXXOOOXXXooooooOOOOOO",
"oooOOOXXXXXXXXXoooXXXXXXoooXXXOOOXXXooooooOOOOOO",
"oooOOOXXXXXXXXXoooXXXXXXoooXXXOOOXXXooooooOOOOOO",
"oooXXXXXXXXXOOOOOOoooXXXooo+++++++++OOOooooooooo",
"oooXXXXXXXXXOOOOOOoooXXXooo+++++++++OOOooooooooo",
"oooXXXXXXXXXOOOOOOoooXXXooo+++++++++OOOooooooooo",
"XXXXXXOOOOOOOOOOOOOOOOOO++++++++++++      oooXXX",
"XXXXXXOOOOOOOOOOOOOOOOOO++++++++++++      oooXXX",
"XXXXXXOOOOOOOOOOOOOOOOOO++++++++++++      oooXXX",
"XXXXXXoooOOOooooooooo   ++++++++++++   ++++++ooo",
"XXXXXXoooOOOooooooooo   ++++++++++++   ++++++ooo",
"XXXXXXoooOOOooooooooo   ++++++++++++   ++++++ooo",
"XXXXXXooooooOOOooo      @@@++++++      @@@+++   ",
"XXXXXXooooooOOOooo      @@@++++++      @@@+++   ",
"XXXXXXooooooOOOooo      @@@++++++      @@@+++   ",
"XXXooooooooo...oooooo      @@@@@@            ooo",
"XXXooooooooo...oooooo      @@@@@@            ooo",
"XXXooooooooo...oooooo      @@@@@@            ooo",
"XXXooooooooo...ooo...ooo...      ......OOOoooXXX",
"XXXooooooooo...ooo...ooo...      ......OOOoooXXX",
"XXXooooooooo...ooo...ooo...      ......OOOoooXXX",
"ooooooooo...............ooo...ooooooOOOOOOXXXXXX",
"ooooooooo...............ooo...ooooooOOOOOOXXXXXX",
"ooooooooo...............ooo...ooooooOOOOOOXXXXXX",
"XXXXXXooo.....................ooooooOOOXXXoooXXX",
"XXXXXXooo.....................ooooooOOOXXXoooXXX",
"XXXXXXooo.....................ooooooOOOXXXoooXXX",
"ooooooXXXOOO...ooo............ooooooooooooXXXXXX",
"ooooooXXXOOO...ooo............ooooooooooooXXXXXX",
"ooooooXXXOOO...ooo............ooooooooooooXXXXXX",
"XXXoooXXXOOO...OOO...OOOooooooXXXooooooXXXXXXXXX",
"XXXoooXXXOOO...OOO...OOOooooooXXXooooooXXXXXXXXX",
"XXXoooXXXOOO...OOO...OOOooooooXXXooooooXXXXXXXXX",
"ooooooXXXOOOoooOOOoooOOOOOOoooXXXOOOXXXXXXoooXXX",
"ooooooXXXOOOoooOOOoooOOOOOOoooXXXOOOXXXXXXoooXXX",
"ooooooXXXOOOoooOOOoooOOOOOOoooXXXOOOXXXXXXoooXXX",
"XXXooooooXXXooooooooooooXXXXXXXXXOOOOOOoooXXXXXX",
"XXXooooooXXXooooooooooooXXXXXXXXXOOOOOOoooXXXXXX",
"XXXooooooXXXooooooooooooXXXXXXXXXOOOOOOoooXXXXXX",
"XXXXXXXXXooooooooooooXXXXXXXXXXXXXXXOOOXXXoooXXX",
"XXXXXXXXXooooooooooooXXXXXXXXXXXXXXXOOOXXXoooXXX",
"XXXXXXXXXooooooooooooXXXXXXXXXXXXXXXOOOXXXoooXXX"
};
