/* XPM */
static char *_8978_f7899f4bde432efa7103a504d12c04cb441b26f7689c7f7995acdf036d902bcd[] = {
/* columns rows colors chars-per-pixel */
"48 48 242 2 ",
"   c #020201",
".  c #0B0403",
"X  c #070903",
"o  c #0B0B05",
"O  c #090A0A",
"+  c #140503",
"@  c #120906",
"#  c #1B0A02",
"$  c #120D0A",
"%  c #1C0C09",
"&  c #0E1405",
"*  c #111506",
"=  c #131C06",
"-  c #13130B",
";  c #131B08",
":  c #1B150E",
">  c #07151A",
",  c #1B1511",
"<  c #181817",
"1  c #030C14",
"2  c #280C06",
"3  c #3B0A04",
"4  c #281709",
"5  c #3A1605",
"6  c #231B13",
"7  c #291F14",
"8  c #371A16",
"9  c #1A230A",
"0  c #182608",
"q  c #1B2817",
"w  c #25290C",
"e  c #25360A",
"r  c #272618",
"t  c #37281C",
"y  c #2B3311",
"u  c #2B3914",
"i  c #333A18",
"p  c #36340D",
"a  c #001922",
"s  c #002532",
"d  c #10282A",
"f  c #292728",
"g  c #382D25",
"h  c #393626",
"j  c #393837",
"k  c #2E322B",
"l  c #420401",
"z  c #42170A",
"x  c #491E16",
"c  c #5A1914",
"v  c #54100A",
"b  c #6A1907",
"n  c #6E1007",
"m  c #45241B",
"M  c #5B2518",
"N  c #522207",
"B  c #7C2601",
"V  c #772418",
"C  c #652718",
"Z  c #4A392A",
"A  c #553C27",
"S  c #443735",
"D  c #502E27",
"F  c #672C23",
"G  c #683625",
"H  c #7D3427",
"J  c #783330",
"K  c #6A1E25",
"L  c #304B0B",
"P  c #38590D",
"I  c #394719",
"U  c #3C5219",
"Y  c #3D5617",
"T  c #2A400D",
"R  c #3E640E",
"E  c #384229",
"W  c #445B1B",
"Q  c #43581A",
"!  c #404D1A",
"~  c #42690E",
"^  c #4C7A0F",
"/  c #48730F",
"(  c #4A671B",
")  c #516E1D",
"_  c #4E7B10",
"`  c #4C7712",
"'  c #56781D",
"]  c #444625",
"[  c #4E5B22",
"{  c #485427",
"}  c #515E24",
"|  c #46443E",
" . c #514F37",
".. c #644836",
"X. c #69523A",
"o. c #785636",
"O. c #526E22",
"+. c #576827",
"@. c #4E7120",
"#. c #527521",
"$. c #5C7924",
"%. c #4D6F20",
"&. c #667B2A",
"*. c #617429",
"=. c #703A46",
"-. c #34454F",
";. c #08576D",
":. c #2A5867",
">. c #046D7E",
",. c #2F6A7A",
"<. c #0F4851",
"1. c #464646",
"2. c #525657",
"3. c #775744",
"4. c #576A44",
"5. c #5E6C52",
"6. c #7A674D",
"7. c #7E6952",
"8. c #66704E",
"9. c #445661",
"0. c #4D6668",
"q. c #5C6565",
"w. c #870A03",
"e. c #8F160D",
"r. c #8C2D10",
"t. c #A72901",
"y. c #AA3212",
"u. c #943F31",
"i. c #8D342C",
"p. c #A63A23",
"a. c #AD3230",
"s. c #FA3939",
"d. c #E02A2C",
"f. c #CF371F",
"g. c #884436",
"h. c #954D3A",
"j. c #9D4523",
"k. c #AA4937",
"l. c #B54D3B",
"z. c #B84B38",
"x. c #AA533B",
"c. c #BA543E",
"v. c #B1543F",
"b. c #B3462E",
"n. c #B34518",
"m. c #C6533D",
"M. c #CB4836",
"N. c #EE463E",
"B. c #8B5042",
"V. c #B75C41",
"C. c #B44F44",
"Z. c #85694A",
"A. c #997855",
"S. c #8E7254",
"D. c #B6654A",
"F. c #B76851",
"G. c #B97E5A",
"H. c #AB734D",
"J. c #837863",
"K. c #C95B47",
"L. c #CE5548",
"P. c #F05353",
"I. c #C8654F",
"U. c #D9624A",
"Y. c #C27358",
"T. c #D16C55",
"R. c #ED6855",
"E. c #FF6763",
"W. c #F07B63",
"Q. c #538511",
"!. c #568A11",
"~. c #5D8120",
"^. c #618422",
"/. c #668C23",
"(. c #688F23",
"). c #688B29",
"_. c #689023",
"`. c #6E962A",
"'. c #6A8830",
"]. c #698250",
"[. c #7F9A65",
"{. c #9D805D",
"}. c #AC865D",
"|. c #B98A57",
" X c #9A8664",
".X c #829D67",
"XX c #8B8061",
"oX c #A68E69",
"OX c #AB9A73",
"+X c #A78F69",
"@X c #BDA579",
"#X c #CA8B5B",
"$X c #C69869",
"%X c #CD9F70",
"&X c #D2966A",
"*X c #FB866D",
"=X c #E7806A",
"-X c #D6A56F",
";X c #E8B37A",
":X c #EFB67C",
">X c #006E91",
",X c #007CAD",
"<X c #007FB6",
"1X c #427585",
"2X c #0295BA",
"3X c #21A0AA",
"4X c #0094CB",
"5X c #029AD4",
"6X c #01BCDD",
"7X c #09B2CE",
"8X c #00A5EA",
"9X c #05B5E5",
"0X c #21C0C9",
"qX c #02D9FB",
"wX c #09D1EB",
"eX c #01F8FE",
"rX c #01E8FF",
"tX c #998681",
"yX c #929FA0",
"uX c #A1A4A6",
"iX c #A88784",
"pX c #CFB48A",
"aX c #F7BE87",
"sX c #EFB584",
"dX c #EDA99A",
"fX c #FAC88D",
"gX c #E9C794",
"hX c #FACA95",
"jX c #FED499",
"kX c #EFD19B",
"lX c #F8DCA6",
"zX c #EBD6A4",
"xX c #FEE9AE",
"cX c #FEE5AC",
"vX c #F7EBB1",
"bX c #FFF6B7",
"nX c #D1D4D5",
"mX c #FFFFC4",
"MX c #FDE4DA",
"NX c #FFFCF8",
"BX c #E7ECE9",
"VX c #EDD3CD",
/* pixels */
"`.`.`.!.!.!._._._.!.!.!.!.!.Q./././._._._._._.(.(.(._.!.!.!._._._.!.!.!.!.!.!._._._.!.!.!.!.!.!.",
"`.`.`.!.!.!._._._.!.!.!.!.!.!._./.~.) ) ) ( ( ) $.(._.!.!.!._._._.!.!.!.!.!.!._._._.!.!.!.!.!.!.",
"`.`.`.!.!.!._._._.!.!.!.!.!.!._.^.U & & ; - & ; U /.(.!.!.!._._._.!.!.!.!.!.!._._._.!.!.!.!.!.!.",
"`.`.`.`.`.`._._._.!.!.!.!.!.Q.^.) i < , . @ o @ y ) ^.^ _ ^ ` Q.!.!.!.!._._._._._._.`.`.`.!.!.!.",
"`.`.`.`.`.`._._._.!.!.!.!.!./ I u q.uXtX3.J h.h.A u i e e e e L ` !.!.!._._._._._._.`.`.`.!.!.!.",
"`.`.`.`.`.`._._._.!.!.!.!.!.R @ > yXNXMXW.U.*X*Xg..           = ~ Q.!.!._._._._._._.`.`.`.!.!.!.",
"_._._.`.`.`.!.!.!.!.!.Q.` P t x F iXVXdXT.m.C.B.o.2.1.S x m m t U R ` !._._._._._._.`.`.`.`.`.`.",
"_._._.`.`.`.!.!.!.!.!.!.Y & 8 z.P.K.D.C.p.V 2 $ 2.nXnX&Xc.I.T.h.6 = L !._._._._._._.`.`.`.`.`.`.",
"_._._.`.`.`.!.!.!.!.^ ~ p 2 c L.E.M.p.p.p.V 2 O q.BXNXdXU.R.*XF.m % w / ^./._._._._.`.`.`.`.`.`.",
"_._._.!.!.!.!.!.!./ T 9 c a.a.L.L.V.b.z.b.u.r.F S.pXpXY.M.I.$XG.C.a.D 7 I $.`._._._._._._._._._.",
"_._._.!.!.!.!.!.!.R = + e.s.N.z.x.l.l.c.l.V.C.z.F.oXG.x.k.H.+X$XE.E.i.X & O.`._._._._._._._._._.",
"_._._.!.!.!.!.!.!.~ = + V N.N.z.x.V.F.V.l.z.L.I.F.F.H.k.a.V.G.F.a.i.D u Y ^.`._._._._._._._._._.",
"!.!.!.!.!.!.`.`.`.) 9 @ F K.L.m.K.Y.|.H.k.z.T.W.I.C.x.p.y.b.K.g.2 O j 8.@.@.#.#.#.#._._._.!.!.!.",
"!.!.!.!.!.!.`.`.`.) ; o F c.c.u.h.G.-X#Xl.C.I.Y.D.M.b.i.C p.m.u.8 $ h 4.%.%.~.#.@.@._._._.!.!.!.",
"!.!.!.!.!.!.`.`.`.) ; . F U.k.5 t A.kXsXT.I.G f i.P.d.c # F K.U.L.a.D q q R @.#.@.~._._._.!.!.!.",
"!.!.!.!.!.!._._._.) 9 o F U.u.. $ XXxXhXE.F.S O K s.d.3   N c.P.E.P.i.X > W @.].].].].].]._._._.",
"!.!.!.!.!.!._._.).'.+.{ A F x   , J.xX;XJ F 7.7.3.i.n c z x M J M.P.C   * Q #.].].].].].]._._._.",
"!.!.!.!.!.!._._.).`.`.'.I .     ,  XcXoX@ , OXvXJ.  + n y.v O 2 i.f.c   * Y #.].].].].].]._._._.",
"!.!.!.!.!.!._._._._._.(.W ; o X -  XxXoX. , OXmXOX6 4 i.M.C   . C r.5 > e Y #..X.X.X].].].#.#.#.",
"!.!.!.!.!.!._._._._.(.(.(.*.W * , OXmXOX. $  XbXgX}.}.&X#X...   # 4 y U ( %.#.[..X[.].].].#.#.#.",
"!.!.!.!.!.!._._._._._._.`.).O.; ,  XvX X. $  XxXkXsXsX;X#Xo.$ X X X T @.#.#.#..X.X.X].].].#.#.#.",
"!.!.!._._._._._._._._./.+.i 9 o O h 6.6.Z. X-XfXfX;X$Xo.] ] 4. . .I W @.#.#.#.#.#.#.#.#.#.`._._.",
"!.!.!._._._._._.(.(._./.I     X     o 3.zXmXjXfX:X;X|.t 1 { [.[..X#.#.#.#.#.#.#.#.#.#.#.#._._._.",
"!.!.!._._._._._.(.!.) Q Z Z Z t t o   g iXpX+XA.A.A.o.6 X E 8.8.4.Y ( @.#.#.#.#.#.#.#.#.#._._._.",
"!.!.!._._._._._.(.) w 6 6.pXpX-X}.g   O 7 f 7 6 4 4 - .   X & & o - U *.&.&.&.`.`.`._._._.!.!.!.",
"!.!.!._._._._._./.) = - S.xXcXfX%XA                               . i $.&.&.&.`.`.`._._._.!.!.!.",
"!.!.!._._._._._.(.) ; $ S.jXjX-X$XoXZ.A o   O < < - > > f  . X X XS.] y I +.&.`.`.`._._._.!.!.!.",
"_._._._._._._._.(.W * - 6.jXfX-X&XfXjX}.,   < f f f f f k oXbXbXxXgX6.o 9 $.`.`.`.`.!.!.!.!.!.!.",
"_._._._._._._._._.+.i r  .A.A.o.h.A.{...O   f j j f j k j 6.J.pXkXcX6.o 9 #.`.`.`.`.!.!.!.!.!.!.",
"_._._._._._._._._.*.$.} i , : $ & * : &   O f | 1.j j 1.1.f o g pXcX7.X 9 $.`.`.`.`.!.!.!.!.!.!.",
"!.!.!.!.!.!._._._.&.&.*.] . X X o X X     O f 1.1.-.1.1.j 6   t pXcX7.. 9 #.`.!.!.!._._._.!.!.!.",
"!.!.!.!.!.!._._._.&.&.&.+.[ [ [ [ +.} i . O g 1.S j k < < Z S.$XkXlX6.. 9 $.`.!.!.!._._._.!.!.!.",
"!.!.!.!.!.!._._._.&.&.&.&.&.&.&.&.&.&.Q o . f Z S m 8 O X X.;XhXcXkX6.o 9 #.`.!.!.!._._._.!.!.!.",
"_._._._._._.!.!.!.`.`.`.&.&.*.W P W ! y . 1 -.,.,.,.:.a X ..-XsXfXgX3.. 0 ) _._._._.!.!.!.!.!.!.",
"_._._._._._.!.!.!.`.`.`.&.&.} q X o o X   1 ;.5X9XwX7Xs . G &X:XhXfX3.. = ) _._._._.!.!.!.!.!.!.",
"_._._._._._.!.!.!.`.`.`.*.+.! 4 + > > > > s >X5X9XqX6X<.-  .H.#X%X$XX.q u $._._._._.!.!.!.!.!.!.",
"!.!.!._._._.!.!.!.`.`.).I - 4 r.r.:.2X,X>X,X2X4X9XqXqX9X2X;.7 4 7 r ] *.)./._.!.!.!.!.!.!.!.!.!.",
"!.!.!._._._.!.!.!.`.`.^.i   2 t.n.1X8X8X5X5X4X4X8XqXqXrXqX>X      X Q (._._._.!.!.!.!.!.!.!.!.!.",
"!.!.!._._._.!.!.!.`.`.`.} p w z N | 0.q.9.0.9.9.:.;.>X6XrX7X>.<.8 l t Q O.^.(.!.!.!.!.!.!.!.!.!.",
"_._._._._._.!.!.!.`.`.`././.( * . b f.n.y.t.e.w.v . s 2XeXeXeX7X=.w.l . 0 ~ !.!.!.!._._._.!.!.!.",
"_._._._._._.!.!.!.`.`.`._.(.#.w * N r.r.B B b b 5 w q >.7X7X0X3XJ w.l   0 ~ !.!.!.!._._._.!.!.!.",
"_._._._._._.!.!.!.`.`.`._._./.$.( p # # # + + + y #.#.q d D j.j.e.w.l   = ~ !.!.!.!._._._.!.!.!.",
"!.!.!._._._._._._.!.!.!._._._._.' I       X   X T Q.^ w . v t.t.e.B 3   9 $.`._._._.!.!.!.!.!.!.",
"!.!.!._._._._._._.!.!.!._._._._./.) Y Y Y Y Y Q ~ !.Q.~ L e 5 5 3 2 y Y ) ).`._._._.!.!.!.!.!.!.",
"!.!.!._._._._._._.!.!.!._._._._._./././././././.!.!.!.!.Q.L X     X L ).`.`.`._._._.!.!.!.!.!.!.",
"!.!.!.!.!.!.!.!.!._._._._._._._._._._._._.!.!.!.!.!.!.!.Q.P 0 0 = 0 P Q.`.`.`.!.!.!._._._.!.!.!.",
"!.!.!.!.!.!.!.!.!._._._._._._._._._._._._.!.!.!.!.!.!.!.!.Q.` / ^ ` Q.Q.`.`.`.!.!.!._._._.!.!.!.",
"!.!.!.!.!.!.!.!.!._._._._._._._././.$.$.Q.^ !.!.Q.^ / ^ ^ ` Q.Q._ _ Q.!.`.`.`.!.!.!._._._.!.!.!."
};
