/* XPM */
static char *_312_1bbac2451f50c69f41d9bf56071ba7f8874c9c64495903428c4cdb212820a446[] = {
/* columns rows colors chars-per-pixel */
"48 48 180 2 ",
"   c #3B3F2D",
".  c #3B5F0C",
"X  c #375017",
"o  c #395317",
"O  c #3E5C14",
"+  c #3B5419",
"@  c #3D620D",
"#  c #3F6111",
"$  c #3F4E2A",
"%  c #3B4A25",
"&  c #425F1B",
"*  c #40660F",
"=  c #436B0D",
"-  c #47730E",
";  c #416115",
":  c #456D10",
">  c #45631B",
",  c #4A651A",
"<  c #4E6B1C",
"1  c #506E1E",
"2  c #4D7516",
"3  c #4F7E10",
"4  c #4C7119",
"5  c #507F12",
"6  c #55761D",
"7  c #557C1D",
"8  c #587A1E",
"9  c #415526",
"0  c #455C23",
"q  c #485E22",
"w  c #445728",
"e  c #455829",
"r  c #4A5B2C",
"t  c #455237",
"y  c #495637",
"u  c #4D5C35",
"i  c #47503A",
"p  c #4A543A",
"a  c #4C5B3A",
"s  c #515C3C",
"d  c #496321",
"f  c #4C6825",
"g  c #4D622A",
"h  c #50642B",
"j  c #536E2E",
"k  c #537521",
"l  c #567A24",
"z  c #587F22",
"x  c #58772D",
"c  c #5D7D2F",
"v  c #4F6133",
"b  c #516435",
"n  c #546B32",
"m  c #5A6D37",
"M  c #5A673F",
"N  c #5A6A3E",
"B  c #55633E",
"V  c #5A7533",
"C  c #627E2F",
"Z  c #617A34",
"A  c #62773C",
"S  c #657A3E",
"D  c #4B4F40",
"F  c #4F5344",
"G  c #515546",
"H  c #545B44",
"J  c #535748",
"K  c #555A49",
"L  c #595E4D",
"P  c #596345",
"I  c #5B614E",
"U  c #5C6B43",
"Y  c #5E6351",
"T  c #626E4C",
"R  c #6A7F43",
"E  c #677748",
"W  c #68754E",
"Q  c #697949",
"!  c #616653",
"~  c #636956",
"^  c #666C59",
"/  c #696E5A",
"(  c #6C725D",
")  c #6E795A",
"_  c #697353",
"`  c #707F57",
"'  c #727C5B",
"]  c #6F7461",
"[  c #717662",
"{  c #747A65",
"}  c #787F67",
"|  c #73766A",
" . c #767B69",
".. c #797E6A",
"X. c #7C7D77",
"o. c #538413",
"O. c #568A11",
"+. c #588A14",
"@. c #5B821E",
"#. c #5B891C",
"$. c #5E8324",
"%. c #5D8923",
"&. c #608520",
"*. c #658C23",
"=. c #688E25",
"-. c #64842C",
";. c #658D2F",
":. c #698D2A",
">. c #689023",
",. c #6E962A",
"<. c #71942E",
"1. c #648534",
"2. c #678936",
"3. c #6B8A33",
"4. c #6C8A3E",
"5. c #7C9B3D",
"6. c #749531",
"7. c #6A8642",
"8. c #728B41",
"9. c #70824C",
"0. c #748D4B",
"q. c #798F4F",
"w. c #7F9D40",
"e. c #769048",
"r. c #758755",
"t. c #75805C",
"y. c #7B8E5D",
"u. c #7A905A",
"i. c #7E8967",
"p. c #7C826C",
"a. c #7F896B",
"s. c #7E9361",
"d. c #7E8372",
"f. c #8BA14F",
"g. c #8DA250",
"h. c #96A75B",
"j. c #96A85C",
"k. c #818E65",
"l. c #818B6E",
"z. c #809265",
"x. c #84936D",
"c. c #818672",
"v. c #848A75",
"b. c #828579",
"n. c #878C79",
"m. c #898E7B",
"M. c #879571",
"N. c #8A9873",
"B. c #8B917D",
"V. c #878980",
"C. c #898C81",
"Z. c #8E9381",
"A. c #8F9289",
"S. c #919684",
"D. c #939986",
"F. c #92958D",
"G. c #969B8A",
"H. c #999E8D",
"J. c #9B9E93",
"K. c #9BA08F",
"L. c #9DA292",
"P. c #9FA298",
"I. c #A1A596",
"U. c #A2A699",
"Y. c #A5A99C",
"T. c #A9AC9F",
"R. c #A7AAA0",
"E. c #AAAEA2",
"W. c #AEB1A6",
"Q. c #AFB2A8",
"!. c #B0B2A6",
"~. c #B2B5AA",
"^. c #B6B8AE",
"/. c #B7BAB0",
"(. c #BABCB4",
"). c #BDC0B7",
"_. c #BEC1B9",
"`. c #C2C4BD",
"'. c #C5C7C1",
"]. c #C7C8C2",
/* pixels */
",.,.,.O.O.O.>.>.>.O.O.O.O.O.O.>.>.>.>.>.6.f.f.h.h.f.f.w.5.,.<.=.>.+.+.O.O.O.O.>.>.>.O.O.O.O.O.O.",
",.,.,.O.O.O.>.>.>.O.O.O.O.O.O.>.>.>.=.,.4.E B M m C *.O.O.O.>.=.>.O.O.O.O.O.O.>.>.>.O.O.O.O.O.O.",
",.,.,.O.O.O.>.>.>.O.O.O.O.O.O.>.>.:.9._ Y K ! ( ! I s n n o.>.>.>.O.O.O.O.O.O.>.>.>.O.O.O.O.O.O.",
",.,.,.,.,.,.>.>.>.O.O.O.O.O.O.>.:.t.[ ~ ! ..G.T.D.p.^ L G b O.O.O.O.O.O.>.>.>.>.>.>.,.,.,.O.O.O.",
",.,.,.,.,.,.>.>.>.O.O.O.O.O.O.=.` p.l.c.G.E.(.`.W.Z.a.( G F h +.O.O.O.O.>.>.>.>.>.>.,.,.,.O.O.O.",
",.,.,.,.,.,.>.>.=.O.O.O.O.O.O.3.( v.K.^.^.`.`.`.W.H.m.p.L G G n O.O.O.O.>.>.>.>.>.>.,.,.,.O.O.O.",
">.>.>.,.,.,.O.O.O.O.O.O.O.O.#.W _ G.W.(.^.^.`.~.H.D.Z.c.~ G G F Z 6 7 O.>.>.>.>.>.>.,.,.,.,.,.,.",
">.>.>.,.,.,.O.O.O.O.O.O.+.c P I ..J.Y.U.I.H.S.n.p.a.v.p.~ G F F s G G b -.>.>.>.>.>.,.,.,.,.,.,.",
">.>.>.,.,.,.O.O.O.O.O.#.V F F L v.S.H.H.m.c.! ! ! ! ( / L G ~ [ ( ) L G P *.=.>.>.>.,.,.,.,.,.,.",
">.>.>.O.O.O.O.O.+.4.y.r._ I F L } v.L.B.( l.v.{ I D G K J Y p.n.v.[ ^ Y K h =.=.>.>.>.>.>.>.>.>.",
">.>.>.O.O.O.O.O.2.G.I.G.n.n.{ I _ p.H.n.n.T.T.H.c.K F F K ( v.B.B.{ / ~ ! y 1 @.>.>.>.>.>.>.>.>.",
">.>.>.O.O.O.O.#.N.~.'.(.^.U.K.n.( ..B.B.H.I.L.I.n.[ K G L } B.B.v.( ! ! L G q , 6 *.>.>.>.>.>.>.",
"O.O.O.O.O.O.,.0.R.'.`.`.).W.I.G...( c.H.I.G.G.H.n...L G ! p.B.B.{ ! ~ ! G K % + X O @.=.=.O.O.O.",
"O.O.O.O.O.O.,.k.R.(.`.(.^.Y.L.n.~ ! m.^.!.T.T.T.H.v.~ G ~ n.S.{ ~ ^ / L G G i + o o , 6 =.O.O.O.",
"O.O.O.O.O.O.Z ] n.L.W.L.B.Z.D.{ L / T.)./.(.(.~.I.v.! G Y v.c.! ! [ / Y K F G $ + X , > 8 O.O.O.",
"O.O.O.O.O.z H F ^ n.B.{ ! ) p.~ K [ !./.^.(.(.T.B.p.^ K L { ' ! ~  ./ K F G G F G G a y a #.>.>.",
"O.O.O.O.l G Y ! { m.p./ ! / ' ^ K { I.Y.^./.E.I.S.{ ! Y J / ( ! ^ } ~ F G G G J J G J p a < *.>.",
"O.O.O.O.M } m.S.v.p.' p.c.c.n.} ! c.D.B.!.Y.G.D.p.( ! Y L ! ~ ! ^ / J G ~ L G ~ ! J K p a > @.>.",
"O.O.O.*.v.T.!.Y.S.p.l.L.!.G.v...! v.n.l.D.B.v.p./ ~ L L G G Y ! I J G L [ Y J / / K G G y o > k ",
"O.O.O.0.T.^.!.I.v.m.G.!.^.I.c.{ Y } ..} c.n...! ! ! L L F G G Y J G K [ ( J L ( Y F K L i + & 4 ",
"O.O.%.l.!.^.^.L.m.H.E.(.~.L.c./ K ~ ^ [ } c.' J K L J J F G F G J I [ [ ( K L ( ! Y ! K i + O 6 ",
"O.O.1.n.!._.).G.c.H.~./.!.p.L Y L J J ! ~ ( ! G L L J J F G F H ! / [ [ ( K ! [ [ [ ^ K i , < >.",
"O.O.1.S.!.`.E.c.c.Y.(.E.H./ ! c.n...^ G H ! L G Y / I G F G G J K L ~ ( ( L L ( [ ( ^ L G & 1 >.",
"O.O.7.H.~.(.D.p.D.^.).I.c.! c.!.`.`.E.[ ~ S.S.c.c.p.{ ~ G G J J K L K K L K ! [ ( ! ~ I G 0 1 >.",
"O.O.0.J.T.L.n.p.I.E.T.I.v.! P.].`.)./.L.S.W.^.W.E.U.v.} ! J ( ..p.( ( ! G J L [ ^ Y Y I K 9 = O.",
"O.o.i.B.n.B.p.v.T.L.B.S.v.v.^.`._.^.!.L.H.~.(./.~.E.S.( L ~ m.m.B.n.p.) ! G G ! ! L L L L y * O.",
"O.< B.v.a...( B.Y.H.v.} ' S.^.`._.~.Y.D.U.^./.).(.^.J.~ H n.m.v.B.n.v.c.! G G G K K K L L s @ O.",
"=.S Z.n./ ~ _ K.Y.D.p./ ( B.R.).~.Y.D.J./.(.(.)./.!.H.( K B.B.B.D.B.c.{ J J J J G J K Y L H # O.",
",.r.' T G L c.U.Y.v.! ! { v.m.L.H.n.{ B.!._._.!.L.n.l.~ G ' n.n.n.p.) Y G K K K L K K L L H # O.",
":.8.S u G ~ S.U.Y...K ~ ......p.[ ( ~ / { b.b.{ [ ( / ! J / ~ ( { ( ! L J J Y ( Y K K L I s ; O.",
"O.%.z & s { H.S.D.{ K ( } l.m.n.L Y ! ! { { | ..} ! L ! ! ~ / / ( ! I K J J Y [ ~ G J H P r * O.",
"O.+.+.o.d p.D.c.} / Y p.B.H.E.I.! H L { E.!.H.m...L G L K ! ....( Y K K K J Y [ ! F K g g & @ O.",
"O.O.O.O.o.` p.) ^ Y { S.Y.(.^.H.[ c.n.d.S.J...] Y G / / L Y p.p. .Y J I Y G L ^ Y F H d , @ @ O.",
"=.=.>.>.=.R U I L ( G.W.(.(.W.p.p.W.~.b.L ( ! | | | C.C.] [ { a.p.Y K Y ^ K J Y Y F K O @ @ : O.",
">.>.>.>.>.3.f y K { R.`.(.~.G.! C.Y.b.^ ! C.F.A.X.V.P.d.^ Y ] [ ( Y I Y ( L G L L J P # @ @ o.O.",
">.>.>.>.>.=.2 9 K p.!.^.Y.U.d.Y d.| ! ^ F.J.E.R.W.R.R.P.] L.p.] ( / Y Y ^ L H H L Y v @ @ - O.O.",
"O.O.O.>.>.>.o.O P B.I.I.G.n./ ^ I K ^ A.E.Q.E.Q.R.W.R.E.U.Y.U.c.] / I I I H H F P U # @ . o.O.O.",
"O.O.O.>.>.>.O.= B S.H.S.v.^ [ Z.^ ( J.P.Q.~.~.~.~.R.W.W.E.P.A.| ^ ( I K H H a r g ; @ @ @ O.O.O.",
"O.O.O.>.>.>.O.o.A v.S.B.( ] I.n.K ] J.Q.Q.Q.~.^.~.W.R.E.R.U.d.K I ~ I J a s v O # # @ = o.O.O.O.",
">.>.>.>.>.>.O.O.1.l.n. .] J.^.] K b.J.E.Q.Q.!.!.W.W.Y.E.E.E.b...p.Y K H 0 0 d # @ @ 7 *.*.O.O.O.",
">.>.>.>.>.>.O.O.#.0.) ..H.W.Z.I {  .E.Q.~.E.~.~.Q.W.Q.Q.Q.Y.v.Z.m.[ I K 0 ; # . . @ *.>.>.O.O.O.",
">.>.>.>.>.>.O.O.O.<.E v.L.P.d.K b.c.Q.~.~.~.~.E.Q.Q.Q.Q.W.W.P.Z.m.a.I K w # # @ = o.>.>.>.O.O.O.",
"O.O.O.>.>.>.>.>.>.O.x ] n.B.) K X.n.Y.E.J.Q.Q.E.E.J.Z.Z.Z.G.T.G.B. .L L r f < < =.>.O.O.O.O.O.O.",
"O.O.O.>.>.>.>.>.>.O.@.) ] [ ( G | ..X.J.R.E.G.b.{ {  .d.m.b.{ {  ./ K L q 1 , 6 >.>.O.O.O.O.O.O.",
"O.O.O.>.>.>.>.>.>.O.O.$.~ ( ! i ^ ....m.Z.] ] | ..d.Z.d.b.X.! ~ ^ I K s < 1 l &.>.>.O.O.O.O.O.O.",
"O.O.O.O.O.O.O.O.O.>.=.>.-.N K G   m.S.J... .d.Z.D.G.A.m.d.[ ^ I K K n 2 =.>.,.O.O.O.>.>.>.O.O.O.",
"O.O.O.O.O.O.O.O.O.>.>.>.>.=.-.Z A t.a.n.Z.G.G.J.J.L.P.H.n.n.a.T n l O.O.,.,.,.O.O.O.>.>.>.O.O.O.",
"O.O.O.O.O.O.O.O.O.>.>.>.>.=.=.=.=.4.8.q.x.M.x.x.M.s.s.u.u.0.;.#.O.O.O.O.,.,.,.O.O.O.>.>.>.O.O.O."
};
