/* XPM */
static char *_8116_fc85502517293f2a4be44edeb40ecb7aa6acc3020309df1546a14ee17010f95d[] = {
/* columns rows colors chars-per-pixel */
"48 48 17 1 ",
"  c #3F3A18",
". c #40251E",
"X c #642414",
"o c #325123",
"O c #5C5524",
"+ c #517521",
"@ c #A7241F",
"# c #812220",
"$ c #E33A34",
"% c #877B30",
"& c #568A11",
"* c #67A200",
"= c #689023",
"- c #6E962A",
"; c #698250",
": c #94C51F",
"> c #829D67",
/* pixels */
"---&&&===&&&&&&============&&&===&&&&&&===&&&&&&",
"---&&&===&&&&&&============&&&===&&&&&&===&&&&&&",
"---&&&===&&&&&&============&&&===&&&&&&===&&&&&&",
"------===&&&&&&======&&&===&&&&&&&&&======---&&&",
"------===&&&oooooooooooo===&&&&&&ooo======---&&&",
"------===&&&oooooooooooo===&&&&&&ooo======---&&&",
"===---&&&&&&oooooooooooo===&&&---ooo======------",
"===---&&&&&&ooo***::::::ooo&&&ooo:::ooo===------",
"===---&&&&&&ooo***::::::ooo&&&ooo:::ooo===------",
"===&&&&&&&&&ooo***::::::ooo;;;ooo:::ooo=========",
"===&&&&&&&&&---ooo***:::oooooo******ooo=========",
"===&&&&&&&&&---ooo***:::oooooo******ooo=========",
"&&&&&&---------ooo***:::oooooo******ooo+++===&&&",
"&&&&&&---------oooooo***      oooooo++++++===&&&",
"&&&&&&---------oooooo***      oooooo++++++===&&&",
"&&&&&&===---===oooooo***      oooooo+++;;;;;;===",
"&&&&&&===---===......   %%%OOO   ;;;+++;;;;;;===",
"&&&&&&===---===......   %%%OOO   ;;;+++;;;;;;===",
"&&&&&&======---......   %%%OOO   ++++++>>>;;;+++",
"&&&&&&======...XXX###         ###XXX+++>>>;;;+++",
"&&&&&&======...XXX###         ###XXX+++>>>;;;+++",
"&&&=========...XXX###         ###XXX+++++++++===",
"&&&======...XXX######@@@@@@$$$@@@###XXX++++++===",
"&&&======...XXX######@@@@@@$$$@@@###XXX++++++===",
"&&&======...XXX######@@@@@@$$$@@@###XXX---===&&&",
"&&&======...XXX###@@@$$$$$$$$$$$$@@@XXX---===&&&",
"&&&======...XXX###@@@$$$$$$$$$$$$@@@XXX---===&&&",
"=========...XXX###@@@$$$$$$$$$$$$@@@XXX---&&&&&&",
"=========...XXX###@@@@@@@@@$$$@@@###XXX---&&&&&&",
"=========...XXX###@@@@@@@@@$$$@@@###XXX---&&&&&&",
"&&&&&&===...XXX###@@@@@@@@@$$$@@@###XXX&&&===&&&",
"&&&&&&===...XXX######@@@@@@@@@@@@###...&&&===&&&",
"&&&&&&===...XXX######@@@@@@@@@@@@###...&&&===&&&",
"======&&&...XXX######@@@@@@@@@@@@###...===&&&&&&",
"======&&&...XXXXXX###############XXX...===&&&&&&",
"======&&&...XXXXXX###############XXX...===&&&&&&",
"&&&===&&&...XXXXXX###############XXX...&&&&&&&&&",
"&&&===&&&---...XXXXXXXXX...XXXXXX...===&&&&&&&&&",
"&&&===&&&---...XXXXXXXXX...XXXXXX...===&&&&&&&&&",
"======&&&---...XXXXXXXXX...XXXXXX...&&&&&&===&&&",
"======&&&---===.........---......---&&&&&&===&&&",
"======&&&---===.........---......---&&&&&&===&&&",
"&&&======&&&===.........&&&......------===&&&&&&",
"&&&======&&&============&&&&&&&&&------===&&&&&&",
"&&&======&&&============&&&&&&&&&------===&&&&&&",
"&&&&&&&&&============&&&&&&&&&&&&&&&---&&&===&&&",
"&&&&&&&&&============&&&&&&&&&&&&&&&---&&&===&&&",
"&&&&&&&&&============&&&&&&&&&&&&&&&---&&&===&&&"
};
