/* XPM */
static char *_1122_80bd790dfe8de060e0da1c7176a6b23479babcbae382e72150a216fc6f473bfc[] = {
/* columns rows colors chars-per-pixel */
"48 48 240 2 ",
"   c #020201",
".  c #0A0403",
"X  c #060903",
"o  c #0B0B05",
"O  c #0C0D0A",
"+  c #03060A",
"@  c #140503",
"#  c #120906",
"$  c #1B0A02",
"%  c #120D0A",
"&  c #1A0A08",
"*  c #0D1404",
"=  c #131A07",
"-  c #14120C",
";  c #151C09",
":  c #1A1D0B",
">  c #18130B",
",  c #07151A",
"<  c #1B1511",
"1  c #171717",
"2  c #030C14",
"3  c #280C06",
"4  c #3B0A04",
"5  c #25170A",
"6  c #3A1605",
"7  c #231B13",
"8  c #291F14",
"9  c #371A16",
"0  c #1B270B",
"q  c #1E2312",
"w  c #1B3118",
"e  c #24280A",
"r  c #27350C",
"t  c #272519",
"y  c #37271B",
"u  c #2B3A12",
"i  c #2A3311",
"p  c #343C17",
"a  c #362B0D",
"s  c #001922",
"d  c #002532",
"f  c #102829",
"g  c #292728",
"h  c #382D25",
"j  c #3C3524",
"k  c #393837",
"l  c #2E3134",
"z  c #420401",
"x  c #491E16",
"c  c #5A1914",
"v  c #4E1109",
"b  c #6A1907",
"n  c #6E1007",
"m  c #4B2107",
"M  c #5A281C",
"N  c #4A2317",
"B  c #7B2601",
"V  c #772418",
"C  c #652718",
"Z  c #4A392A",
"A  c #543B29",
"S  c #443735",
"D  c #47322B",
"F  c #672C23",
"G  c #683625",
"H  c #7D3427",
"J  c #783330",
"K  c #6A1E25",
"L  c #2B430C",
"P  c #35540D",
"I  c #324414",
"U  c #3A4E15",
"Y  c #394818",
"T  c #3D5617",
"R  c #30460E",
"E  c #3E630E",
"W  c #3C412E",
"Q  c #45581B",
"!  c #404D1A",
"~  c #42690E",
"^  c #49750F",
"/  c #4A6719",
"(  c #516D1E",
")  c #4E7B11",
"_  c #4A7511",
"`  c #54731E",
"'  c #5B7D1F",
"]  c #517C13",
"[  c #454725",
"{  c #4D5D22",
"}  c #465725",
"|  c #454839",
" . c #555836",
".. c #554D30",
"X. c #644836",
"o. c #695239",
"O. c #785636",
"+. c #516122",
"@. c #596D28",
"#. c #4F7121",
"$. c #517521",
"%. c #5C7D23",
"&. c #4D6D22",
"*. c #667B2A",
"=. c #703A46",
"-. c #34454F",
";. c #08576D",
":. c #2A5867",
">. c #046D7E",
",. c #2F6A7A",
"<. c #0F4851",
"1. c #464646",
"2. c #525657",
"3. c #775744",
"4. c #7A664D",
"5. c #7E6952",
"6. c #6A6D50",
"7. c #445661",
"8. c #4D6668",
"9. c #5C6565",
"0. c #5A6657",
"q. c #870A03",
"w. c #8F160D",
"e. c #8C2D10",
"r. c #A72901",
"t. c #AA3212",
"y. c #943F31",
"u. c #8D352C",
"i. c #A63A23",
"p. c #AD3230",
"a. c #FA3939",
"s. c #E02A2C",
"d. c #CF371F",
"f. c #884436",
"g. c #944C3A",
"h. c #9D4523",
"j. c #AA4937",
"k. c #B54D3B",
"l. c #B84B38",
"z. c #AA533B",
"x. c #BA543E",
"c. c #B1543F",
"v. c #B3462E",
"b. c #B34518",
"n. c #C6533D",
"m. c #CB4836",
"M. c #EE463E",
"N. c #8B5042",
"B. c #B75C41",
"V. c #B44F44",
"C. c #85694A",
"Z. c #997855",
"A. c #8E7254",
"S. c #B6654A",
"D. c #B76851",
"F. c #B97E5A",
"G. c #AB734D",
"H. c #837863",
"J. c #C95B47",
"K. c #CE5548",
"L. c #F05353",
"P. c #C8654F",
"I. c #D9624A",
"U. c #C27358",
"Y. c #D16C55",
"T. c #ED6855",
"R. c #FF6763",
"E. c #F07B63",
"W. c #538511",
"Q. c #568A11",
"!. c #5D811F",
"~. c #5E8120",
"^. c #618522",
"/. c #658C23",
"(. c #688F23",
"). c #67892B",
"_. c #689023",
"`. c #6E962A",
"'. c #698250",
"]. c #9D805D",
"[. c #AC865D",
"{. c #B98A57",
"}. c #9A8664",
"|. c #829D67",
" X c #8B8061",
".X c #A68E69",
"XX c #AB9A73",
"oX c #A78F69",
"OX c #BDA579",
"+X c #CA8B5B",
"@X c #C69869",
"#X c #CD9F70",
"$X c #D2966A",
"%X c #FB866D",
"&X c #E7806A",
"*X c #D6A56F",
"=X c #E8B37A",
"-X c #EFB67C",
";X c #006E91",
":X c #007CAD",
">X c #007FB6",
",X c #427585",
"<X c #0295BA",
"1X c #21A0AA",
"2X c #0094CB",
"3X c #029AD4",
"4X c #01BCDD",
"5X c #09B2CE",
"6X c #00A5EA",
"7X c #05B5E5",
"8X c #21C0C9",
"9X c #02D9FB",
"0X c #09D1EB",
"qX c #01F8FE",
"wX c #01E8FF",
"eX c #998681",
"rX c #929FA0",
"tX c #A1A4A6",
"yX c #A88784",
"uX c #CFB48A",
"iX c #F7BE87",
"pX c #EFB584",
"aX c #EDA99A",
"sX c #FAC88D",
"dX c #E9C694",
"fX c #FACA95",
"gX c #FED499",
"hX c #EFD19B",
"jX c #F8DCA6",
"kX c #EBD6A4",
"lX c #FEE9AE",
"zX c #FEE5AC",
"xX c #F7EBB1",
"cX c #FFF6B7",
"vX c #D1D4D5",
"bX c #FFFFC4",
"nX c #FDE4DA",
"mX c #FFFCF8",
"MX c #E7ECE9",
"NX c #EDD3CD",
/* pixels */
"`.`.`.Q.Q.Q._._.(.Q.Q.Q.Q.Q.Q._._._._._.(._._.(.(._.(.Q.Q.Q.^./.(.Q.Q.Q.Q.Q.Q._._._.Q.Q.Q.Q.Q.Q.",
"`.`.`.Q.Q.Q._._.(.Q.Q.Q.Q.Q.Q._._._._._.(./.%./ / ( ( ~ ~ ] (.(.(.Q.Q.Q.Q.Q.Q._._._.Q.Q.Q.Q.Q.Q.",
"`.`.`.Q.Q.Q._._.(.Q.Q.Q.Q.Q.Q._._._._._.(.^.U = % = = * * U /.(.(.Q.Q.Q.Q.Q.Q._._._.Q.Q.Q.Q.Q.Q.",
"`.`.`.`.`.`._._.(.Q.Q.Q.Q.Q.Q.!.!.~.~.!.^._ i @ # @ . 1 1 u ~ ) Q.Q.Q.Q.(.(.(.(._._.`.`.`.Q.Q.Q.",
"`.`.`.`.`.`._._.(.Q.Q.Q.Q.Q.) U r u u u p r A g.N.u.3.eXtX0.w R ) Q.Q.Q._._._._._._.`.`.`.Q.Q.Q.",
"`.`.`.`.`.`._._.(.Q.Q.Q.Q.Q.~ :     . .   . f.%X%XI.E.nXmXrX, * E Q.Q.Q._._._._._._.`.`.`.Q.Q.Q.",
"_._._.`.`.`.Q.Q.Q.Q.Q.Q.^ ~ p y N x 9 M 1.2.3.N.V.J.J.aXNXyXF x Y P _ Q._._._._._._.`.`.`.`.`.`.",
"_._._.`.`.`.Q.Q.Q.Q.Q.Q.P * 7 N.Y.P.B.yXvXvX2.% 3 V i.V.S.K.L.V.9 * T W._._._.(._._.`.`.`.`.`.`.",
"_._._.`.`.`.Q.Q.Q.Q.W.~ t @ x D.%XT.I.aXmXMX9.. 3 V t.i.i.m.R.L.c 3 i / %.^.(.(._._.`.`.`.`.`.`.",
"_._._.Q.Q.Q.Q.Q.Q.) L 0 M p.V.F.@XU.m.U.uXuXA.F H i.j.v.j.x.J.K.p.t.c t I %.`.(._._._._._._._._.",
"_._._.Q.Q.Q.Q.Q.Q.~ * X u.L.R.@XoXG.l.V.[.oXD.l.l.x.x.l.k.k.g.l.a.a.w.@ ; #.`.(._._._._._._._._.",
"_._._.Q.Q.Q.Q.Q.Q.^ P r M u.V.G.[.c.i.j.D.D.D.Y.J.x.k.S.S.B.z.l.K.a.u.@ ; ` `.(._._._._._._._._.",
"Q.Q.Q.Q.Q.Q.`.`.`.`.`.).Y o 3 u.J.v.t.v.j.V.Y.E.Y.k.j.G.{.F.J.n.n.n.F # s T #.$.$.$._._._.Q.Q.Q.",
"Q.Q.Q.Q.Q.Q.`.`.`.(./.%.I 3 9 y.n.i.V e.p.K.P.D.D.k.V.+X*X{.g.y.x.x.F o 0 T $.$.$.$._._._.Q.Q.Q.",
"Q.Q.Q.Q.Q.Q.`.`.`.%.I e M j.K.K.J.F # c s.M.u.g J D.T.pXhX[.9 6 j.I.F X * E $.$.$.$._._._.Q.Q.Q.",
"Q.Q.Q.Q.Q.Q._._.(.$.: . u.L.R.L.x.N   4 s.a.K 2 h P.E.fXlXH.% . y.I.G * , T #.'.'.'.'.'.'._._._.",
"Q.Q.Q.Q.Q.Q._._.(.$.; . V M.m.H M N v v n w.3.H.5.F J *XcX}.%   x F A | } $.$.'.'.'.'.'.'._._._.",
"Q.Q.Q.Q.Q.Q._._.(.` =   c p.i.3   c t.b @ . H.xXXX1 # oXlX}.<     X W 6.$.$.).'.'.'.'.'.'._._._.",
"Q.Q.Q.Q.Q.Q._._.(.` u = m e.C .   b v.u.5 7 XXcXyX- X .XzX}.<   2 = U #.$.$.$.|.|.|.'.'.'.#.$.$.",
"Q.Q.Q.Q.Q.Q._._._./.` / u 7 $   X O.$X$X[.oXdXlXoX- . XXbXXX< - W / &.#.$.$.$.'.|.'.'.'.'.&.!.#.",
"Q.Q.Q.Q.Q.Q._._._._._./.U X . X % o.+X=X=X-XgXzX}.< # }.xX}.> 1  .$.$.#.$.$.$.|.|.|.'.'.'.$.!.#.",
"Q.Q.Q._._._._._._._.(.(.+.Y Y Q Q p Z C.@X=XsXsXuX}.5.5.6.h X o g u &.#.$.$.$.$.!.).$.$.$.`._._.",
"Q.Q.Q._._._._._._._._.(.*.*.*._.(.U o y {.=X-X-XgXbXkXo.O           I #.$.$.$.$.$.$.$.$.$._._._.",
"Q.Q.Q._._._._._._._.(.(.@.{ Q ( / r X 5 O.Z.Z.G..XuXXXh   % y h Z Z j Y T #.$.#.$.$.$.$.$.)._._.",
"Q.Q.Q._._._._._._._._.(.U > o = = X   . > 7 7 < 7 y 8 +   h [.#XuXdX6.: e { *.`.`.`._._._.Q.Q.Q.",
"Q.Q.Q._._._._._._.(._.^.u . . .       +                   A #XiXlXlXA.> = { *.`.`.`._._._.Q.Q.Q.",
"Q.Q.Q._._._._._._.%.U u ..A.}.}.}...7 1 1 - 1 1 O   O A C.[.@X*XfXgXA.% > Q *.`.`.`._._._.Q.Q.Q.",
"_._._._._._._._.(.+.: o 4.dXxXcXcX.Xl f g g g g 1   < [.fXsX*X*XsXgXC.& = ( `.`.`.`.Q.Q.Q.Q.Q.Q.",
"_._._._._._._._._.{ : . 4.jXjXOX}.6.k l l g l k t + . o.[.A.O.O.A.Z. .u Y %.`.`.`.`.Q.Q.Q.Q.Q.Q.",
"_._._._._._._._.(.+.: X C.zXuXh 2 g 1.1.1.k 1.1.g .   O > > > > < < p ( ).`.`.`.`.`.Q.Q.Q.Q.Q.Q.",
"Q.Q.Q.Q.Q.Q._._._.+.: X 5.lXuXy + t k 1.1.k 1.1.l +   . X o o o X o Y ^.`.`.`.Q.Q.Q._._.(.Q.Q.Q.",
"Q.Q.Q.Q.Q.Q._._._.{ : . 4.jXdX@XZ.S % 1 h S 1.1.g X X p +.+.( ( / +.^._.`.`.`.Q.Q.Q._._.(.Q.Q.Q.",
"Q.Q.Q.Q.Q.Q._._._./ ; . 4.kXjXfX=Xo.X . 9 h D S h @ O Q *.*._.(.(.(.(.(.`.`.`.Q.Q.Q._._._.Q.Q.Q.",
"_._._._._._.Q.Q.Q.@.0 . 3.dXsXiX*XX.. , :.,.,.,X<.2 . i ! ! T / ' (.(.(._._._._._._.Q.Q.Q.Q.Q.Q.",
"_._._._._._.Q.Q.Q.` ; + 4.sXsX-X$XX.. d 5X0X5X3X;.2     o o   0 ` _._._._._._._._._.Q.Q.Q.Q.Q.Q.",
"_._._._._._.Q.Q.Q.%.p q o.@X#X+XG..., <.4X9X7X3X;Xd , , s , $ e Q ` ^.(._._._._._._.Q.Q.Q.Q.Q.Q.",
"Q.Q.Q._._._.Q.Q.W.`.).).[ t 8 5 7 ;.<X4X9X9X6X3X<X:X;X<X>X:.e.B 3 = ! ^._._._.Q.Q.Q.Q.Q.Q.Q.Q.Q.",
"Q.Q.Q._._._.Q.Q.Q.`.`.`.Y X       ;X9XqX9X0X7X2X2X2X2X6X6X,Xb.r.3   Y ^._._._.Q.Q.Q.Q.Q.Q.Q.Q.Q.",
"Q.Q.Q._._._.Q.Q.Q.).@.} m z 9 <.>.3XwX7X;X;.:.-.7.8.2.9.8.| m m e R ( ^._._._.Q.Q.Q.Q.Q.Q.Q.Q.Q.",
"_._._._._._.Q.Q.Q.$.q o z q.=.5XqXqXqX<Xd O v q.w.t.t.t.d.b $ % ~ (.`.`.Q.Q.Q.Q.Q.Q._._._.Q.Q.Q.",
"_._._._._._.Q.Q.Q.@.0   4 q.J 1X8X5X5X>.w 0 6 n b B B e.e.m * 0 _ `.`.`.Q.Q.Q.Q.Q.Q._._._.Q.Q.Q.",
"_._._._._._.Q.Q.Q.$.0   z q.w.t.g.D f w ( ` i # @ $ @ $ 3 u P ^ W.`.`.`.Q.Q.Q.Q.Q.Q._._._.Q.Q.Q.",
"Q.Q.Q._._._._._._.~ 0   4 n w.r.r.v . r !.!.I X           L ) Q.Q.`.`.`.`.`.`._._._.Q.Q.Q.Q.Q.Q.",
"Q.Q.Q._._._._._._.] E P a 3 4 m 6 i U / /.(.` Q P P P P P ~ W.Q.Q.`.`.`.`.`.`._._._.Q.Q.Q.Q.Q.Q.",
"Q.Q.Q._._._._._.(.Q.W.W.R X     . U /.(._._.(._.W.W.W.W.W.Q.Q.Q.Q.`.`.`.`.`.`._._._.Q.Q.Q.Q.Q.Q.",
"Q.Q.Q.Q.Q.Q.Q.Q.Q.(.(.(.Q 0 0 0 0 ~ (.(._.Q.W.Q.Q.Q.Q.Q.Q.Q.Q.Q.Q.Q.Q.Q.`.`.`.Q.Q.Q._._._.Q.Q.Q.",
"Q.Q.Q.Q.Q.Q.Q.Q.Q._._.(.^.' ' ' !./._._._.Q.Q.Q.Q.W.Q.Q.Q.Q.Q.Q.Q.Q.Q.Q.`.`.`.Q.Q.Q._._._.Q.Q.Q.",
"Q.Q.Q.Q.Q.Q.Q.Q.Q._._.(.(.!.!.!.!.!.!.' ' ) W.Q.W.) ) ) ^ W.W.Q.Q.Q.Q.Q.`.`.`.Q.Q.Q._._._.Q.Q.Q."
};
