/* XPM */
static char *_929_1b26196b52188310911310f131a31d8024c5ef5c9022ba9af00f06abf2ac7548[] = {
/* columns rows colors chars-per-pixel */
"48 48 8 1 ",
"  c #423224",
". c #5D4937",
"X c #6E5940",
"o c #816A4F",
"O c #568A11",
"+ c #689023",
"@ c #6E962A",
"# c #95805A",
/* pixels */
"@@@............++++++.........+++............OOO",
"@@@............++++++.........+++............OOO",
"@@@............++++++.........+++............OOO",
"...ooooooXXXooo   ...oooXXXooo   ooooooXXXooo   ",
"...ooooooXXXooo   ...oooXXXooo   ooooooXXXooo   ",
"...ooooooXXXooo   ...oooXXXooo   ooooooXXXooo   ",
"...ooooooXXXooo   ...oooXXXooo   ooooooXXXooo   ",
"...ooooooXXXooo   ...oooXXXooo   ooooooXXXooo   ",
"...ooooooXXXooo   ...oooXXXooo   ooooooXXXooo   ",
"...oooooooooooo   ...ooooooooo   oooooooooooo   ",
"...oooooooooooo   ...ooooooooo   oooooooooooo   ",
"...oooooooooooo   ...ooooooooo   oooooooooooo   ",
"...ooooooXXXooo   ...oooXXXooo   ooooooXXXooo   ",
"...ooooooXXXooo   ...oooXXXooo   ooooooXXXooo   ",
"...ooooooXXXooo   ...oooXXXooo   ooooooXXXooo   ",
"...oooooooooooo   ...ooooooooo   oooooooooooo   ",
"...oooooooooooo   ...ooooooooo   oooooooooooo   ",
"...oooooooooooo   ...ooooooooo   oooooooooooo   ",
"...XXXooooooooo   ...XXXoooooo   XXXooooooooo   ",
"...XXXooooooooo   ...XXXoooooo   XXXooooooooo   ",
"...XXXooooooooo   ...XXXoooooo   XXXooooooooo   ",
"...XXXooooooooo...oooXXXoooooo   XXXooooooooo   ",
"...XXXooooooooo...oooXXXoooooo   XXXooooooooo   ",
"...XXXooooooooo...oooXXXoooooo   XXXooooooooo   ",
"...oooXXXoooooo...oooooooooooo   oooXXXoooooo   ",
"...oooXXXoooooo...oooooooooooo   oooXXXoooooo   ",
"...oooXXXoooooo...oooooooooooo   oooXXXoooooo   ",
"...oooXXXoooooo...oooooooooooo   oooXXXoooooo   ",
"...oooXXXoooooo...oooooooooooo   oooXXXoooooo   ",
"...oooXXXoooooo...oooooooooooo   oooXXXoooooo   ",
"...XXXooooooooo...XXXoooooo   ...XXXooooooooo   ",
"...XXXooooooooo...XXXoooooo   ...XXXooooooooo   ",
"...XXXooooooooo...XXXoooooo   ...XXXooooooooo   ",
"...oooooooooooo...ooooooooo   ...oooooooooooo   ",
"...oooooooooooo...ooooooooo   ...oooooooooooo   ",
"...oooooooooooo...ooooooooo   ...oooooooooooo   ",
"   ###oooooo###   ###ooo###      ###oooooo###   ",
"   ###oooooo###   ###ooo###      ###oooooo###   ",
"   ###oooooo###   ###ooo###      ###oooooo###   ",
"   ############   #########      ############   ",
"   ############   #########      ############   ",
"   ############   #########      ############   ",
"   ............   .........      ............   ",
"   ............   .........      ............   ",
"   ............   .........      ............   ",
"OOO            +++         OOOOOO            OOO",
"OOO            +++         OOOOOO            OOO",
"OOO            +++         OOOOOO            OOO"
};
