/* XPM */
static char *_9337_8ac1cbfb372c37c4370c473f2db302b09e90c507c8ec9941ef373b6c18a5a23f[] = {
/* columns rows colors chars-per-pixel */
"48 48 220 2 ",
"   c #020201",
".  c #0A0403",
"X  c #060A02",
"o  c #090D03",
"O  c #0B0E0B",
"+  c #02080C",
"@  c #160A07",
"#  c #0D1305",
"$  c #0E1308",
"%  c #131A06",
"&  c #151609",
"*  c #080C14",
"=  c #1C1C1D",
"-  c #141416",
";  c #230D08",
":  c #3A0901",
">  c #29120C",
",  c #3B1608",
"<  c #281913",
"1  c #341915",
"2  c #1B240C",
"3  c #1D290B",
"4  c #1E2A12",
"5  c #242B0D",
"6  c #33280F",
"7  c #24320D",
"8  c #283C0A",
"9  c #272814",
"0  c #3A2818",
"q  c #2A3714",
"w  c #373719",
"e  c #181D22",
"r  c #16282E",
"t  c #272829",
"y  c #3A2E29",
"u  c #38312C",
"i  c #343435",
"p  c #3C3C3C",
"a  c #393635",
"s  c #2F3032",
"d  c #4D1A01",
"f  c #43150C",
"g  c #481706",
"h  c #551A0A",
"j  c #481F14",
"k  c #561E14",
"l  c #6F1A11",
"z  c #46271B",
"x  c #5A2417",
"c  c #49331E",
"v  c #7A2818",
"b  c #6C2E1A",
"n  c #452C24",
"m  c #47372A",
"M  c #4E352E",
"N  c #793627",
"B  c #6D352A",
"V  c #4E1F22",
"C  c #38580D",
"Z  c #2F4112",
"A  c #314511",
"S  c #3C4C1A",
"D  c #374816",
"F  c #3B5319",
"G  c #3C5515",
"H  c #2D470A",
"J  c #3E610E",
"K  c #3C4420",
"L  c #445B1B",
"P  c #436B0F",
"I  c #49750F",
"U  c #4B651C",
"Y  c #49681A",
"T  c #4A7412",
"R  c #4E7D10",
"E  c #567B1B",
"W  c #494B25",
"Q  c #544937",
"!  c #4D4E2E",
"~  c #6B4839",
"^  c #546A24",
"/  c #527521",
"(  c #5C7D23",
")  c #5B7724",
"_  c #4F6A21",
"`  c #647B2A",
"'  c #023648",
"]  c #003950",
"[  c #3D3F40",
"{  c #024759",
"}  c #3B4041",
"|  c #33454C",
" . c #314F58",
".. c #004B63",
"X. c #005C73",
"o. c #1F6074",
"O. c #2A6577",
"+. c #424141",
"@. c #6A5C49",
"#. c #765E45",
"$. c #79654A",
"%. c #666B4C",
"&. c #841300",
"*. c #881A1C",
"=. c #962800",
"-. c #8A2813",
";. c #942C16",
":. c #893619",
">. c #9B321C",
",. c #A83200",
"<. c #A9300F",
"1. c #893828",
"2. c #993721",
"3. c #A73B25",
"4. c #B43125",
"5. c #C53D25",
"6. c #ED3735",
"7. c #91421D",
"8. c #9B4332",
"9. c #8C4735",
"0. c #AB442E",
"q. c #A4452A",
"w. c #AD4A35",
"e. c #A84534",
"r. c #B34B35",
"t. c #B34E39",
"y. c #B54833",
"u. c #B5523E",
"i. c #BC523A",
"p. c #B24830",
"a. c #C84A34",
"s. c #9E5645",
"d. c #BB5442",
"f. c #B95A45",
"g. c #AD514C",
"h. c #856B4B",
"j. c #8C7657",
"k. c #BB6649",
"l. c #BA6851",
"z. c #AF6E50",
"x. c #C65A47",
"c. c #D75C47",
"v. c #D85D55",
"b. c #CD5351",
"n. c #F15050",
"m. c #C5634C",
"M. c #CA6854",
"N. c #D66A56",
"B. c #D6725C",
"V. c #D8735E",
"C. c #CE6F53",
"Z. c #E76859",
"A. c #E96C56",
"S. c #FF5A62",
"D. c #D96F62",
"F. c #F56E66",
"G. c #E27562",
"H. c #EB7867",
"J. c #F3766B",
"K. c #FB7476",
"L. c #F67177",
"P. c #548511",
"I. c #568A11",
"U. c #5F8320",
"Y. c #618522",
"T. c #668D22",
"R. c #678D25",
"E. c #689023",
"W. c #6E962A",
"Q. c #698250",
"!. c #68814F",
"~. c #AC855D",
"^. c #B5895F",
"/. c #829D67",
"(. c #B38B63",
"). c #B9946B",
"_. c #A98F6B",
"`. c #B9A47C",
"'. c #CF946B",
"]. c #F68975",
"[. c #F28A72",
"{. c #D6AB7B",
"}. c #C6A87D",
"|. c #E7AB78",
" X c #19789B",
".X c #267087",
"XX c #1984A4",
"oX c #1697B4",
"OX c #2195B5",
"+X c #20ADBF",
"@X c #0599CB",
"#X c #019CD2",
"$X c #01A6DB",
"%X c #03ABDC",
"&X c #02A3D7",
"*X c #01B8D8",
"=X c #0DAAD4",
"-X c #00ADE2",
";X c #01B1E4",
":X c #04B8ED",
">X c #02BCF6",
",X c #00AFF1",
"<X c #22A9C5",
"1X c #25C1D3",
"2X c #01C7E8",
"3X c #03C5FC",
"4X c #03DAFC",
"5X c #03E5FF",
"6X c #00F3FF",
"7X c #FC8F84",
"8X c #D1B689",
"9X c #F0BC85",
"0X c #D9C396",
"qX c #F9CC94",
"wX c #FED598",
"eX c #EBCF9A",
"rX c #EBD8A4",
"tX c #FEDFA6",
"yX c #F7E5AB",
"uX c #FFEAB0",
/* pixels */
"W.W.W.I.I.I.E.E.E.I.I.I.I.I.I.E.E.E.E.E.R.E.E.E.E.E.E.I.I.I.E.E.E.I.I.P.I.I.I.E.E.E.I.I.I.I.I.I.",
"W.W.W.I.I.I.E.E.E.I.I.I.I.I.I.E.E.T.Y.U.Y.I.Y.Y.U.T.E.I.I.I.T.Y.U.R R P.P.I.I.E.E.E.I.I.I.I.I.I.",
"W.W.W.I.I.I.E.E.E.I.I.I.I.I.I.E.E.T.U Z Z D A A 8 L U.I.I H A A A H 8 A P I.I.E.E.E.I.I.I.I.I.I.",
"W.W.W.W.W.W.E.E.E.I.I.I.I.I.I.T.R.Y.8   . X X   . 3 E P.Y %   X X X X * L E.E.E.E.E.W.W.W.I.I.I.",
"W.W.W.W.W.W.E.E.E.I.I.I.P.E T ( ( ^ w > > ; & > > 9 _ E L > ; ; > 1 1 1 W ) ( T.E.E.W.W.W.I.I.I.",
"W.W.W.W.W.W.E.E.E.I.I.I.R S 4 9 q q ~ f.u.N 1.e.w.N w 7 6 h -.1.s.l.v.l.~ 9 D ) E.E.W.W.W.I.I.I.",
"E.E.E.W.W.W.I.I.I.I.I.P.Y 7       @ s.[.G.u.i.c.Z.e.>   : -.4.M.G.].7XL.N @ % U E.E.W.W.W.W.W.W.",
"E.E.E.W.W.W.I.I.I.P.T G A z x z n B g.F.A.x.d.1.B x j z N r.a.A.L.D.g.~ n q F E E.E.W.W.W.W.W.W.",
"E.E.E.W.W.W.I.I.I.I.C # - 1.x.m.l.N.n.n.n.b.g.n . @ b w.k.k.N.L.L.g.1 & W Y.R.T.E.E.W.W.W.W.W.W.",
"E.E.E.I.I.I.I.P.R P 8 ; f 2.c.N.G.F.n.n.n.b.g.x . ; 2.c.N.B.G.K.L.g.> * S Y.T.T.E.E.E.E.E.E.E.E.",
"E.E.E.I.I.I.I.T 8 5 x 4.4.3.2.u.N.G.G.Z.b.g.0.1.b 1.x.n.S.F.J.H.G.f.v h 6 7 S ( E.E.E.E.E.E.E.E.",
"E.E.E.I.I.I.P.C # . *.6.6.>.-.q.M.B.D.D.M.3.3.p.w.d.n.n.S.L.K.G.C.f.3.-.f X 3 U E.E.E.E.E.E.E.E.",
"I.I.I.I.I.I.W.L o . l 6.6.3.2.f.G.[.M.k.m.l.m.c.x.b.c.n.n.H.J.H.G.b.5.;., X $ F / / E.E.E.I.I.I.",
"I.I.I.I.I.I.E.U . . l 5.a.0.w.N.].7Xm.e.M.8X0X'.N.M.d.d.m.V.H.L.K.Z.a.>.j + $ F / / E.E.E.I.I.I.",
"I.I.I.I.I.I.W._ 2 $ j :.3.0.u.C.7X[.x.e.z.8X9X'.B.m.u.w.f.M.B.L.K.v.3.v , $ % F / / E.E.E.I.I.I.",
"I.I.I.I.I.I.E.E Y D 6 , k 0.c.M.M.M.d.w.f.C.C.M.m.d.q.2.w.f.m.v.N.e.x > 9 A F !.Q.Q.Q.Q.Q.E.E.E.",
"I.I.I.I.I.I.E.T.E.Y.Z   > q.A.c.s.t.t.u.t.d.d.d.d.t.2.-.3.u.d.x.i.N ; $ q / / Q.Q.Q.Q.Q.Q.E.E.E.",
"I.I.I.I.I.I.E.E.E.W.U 7 9 B 1.e.e.p.t.u.t.y.3.w.w.0.3.2.3.e.w.a.m.N @ O Z / U.Q.Q.Q.Q.Q.Q.E.E.E.",
"I.I.I.I.I.I.E.E.E.E.Y.) L w > k 3.a.r.d.y.3.3.2.>.2.w.d.p.<.0.A.H.s.- X q _ / /././.Q.Q.Q./ / / ",
"I.I.I.I.I.I.E.E.E.E.E.E.) 9   : >.4.r.u.y.>.;.>.-.>.t.f.0.-.>.N.[.s.1 $ q E / Q././.Q.Q.Q./ / / ",
"I.I.I.I.I.I.E.E.E.E.E.E.) 9   @ , x :.y.1.f f 1.x.a.r.3.v g f b B M q A L / U.Q././.Q.Q.Q./ / / ",
"I.I.I.E.E.E.E.E.E.E.E.R.^ w +     @ v 5.-.. @ 9.].[.a.<.k @     X 3 U / / / U./ / / / U./ R.E.E.",
"I.I.I.E.E.E.E.E.E.T.U.Y W 9 - * O @ x -.h   . M l.g.1.l f O + * $ 2 Z L _ / / / / / / / / E.E.E.",
"I.I.I.E.E.E.E.E.E.T.L 2 $ t i i t t < ; @     @ 1 1 ; ; < t s i s r * 2 F / / / / / / / / R.E.E.",
"I.I.I.E.E.E.E.E.E.E.F # X t +.+.p s - +                 - i } +.| t   $ W ` ` W.W.W.E.E.E.I.I.I.",
"I.I.I.E.E.E.R.P.L W ! h.@.a t s p s t e = = = = = = = = t p p s t M $.$.! K W R.W.W.E.E.E.I.I.I.",
"I.I.I.E.E.E.R.U % - h.rX8XQ * t a a [ [ p p p p p [ p [ p p i e - @.0XeX$.O 5 ) W.W.E.E.E.I.I.I.",
"E.E.E.E.E.E.E.L $ @ j.yX0XM + r [ [ K +.+.} +.+.Q [ [ [ [ [ i e * @.rXyX$.. & _ W.W.I.I.I.I.I.I.",
"E.E.E.E.E.E.E.Y & X $.yX8XQ * t m y a p p p [ +.[ p p p i y y e e @.rXrX@.  5 / W.W.I.I.I.I.I.I.",
"E.E.E.E.E.E.E._ & + $.yX0XQ * 1 n n u p p [ } [ [ p p a y n y < - @.rXrX~   3 E W.W.I.I.I.I.I.I.",
"I.I.I.I.R P D D Q $._.qX8Xu . ' O..X[ i p [ } [ [ [ a a  .O.o.r X Q 8XwX_.~ ! A H P T.E.E.I.I.I.",
"I.I.I.I.T 8 # m `.rX9X9X(.0   ..&X=X .f z n n n n n j z O.;X@X'   m '.qXeXeX_.y # H ( E.E.I.I.I.",
"I.I.I.I.T 5   M 8XuXqX|.z.6 X ..>X:XO.z m [ p p p p u a .X3X;X]   z ^.9XwXtX`.0   8 P.R.W.I.I.I.",
"E.E.E.E.E 7   m {.yXqX9X^.6   ..-X3XoX X XXXXXXXXX XXX X@X3X&X'   c '.qXwXwX).y   7 I I.P.I.I.I.",
"E.E.E.E.E 5   M {.wXwXwX'.0   { =X3X-X%X;X-X;X;X;X-X%X-X;X>X@X' . c {.wXwXqX).0   7 T I.I.I.I.I.",
"E.E.E.E.P.D 2 w h.^.~.~.#.>   ..;X3X;X-X;X;X;X;X;X;X;X-X:X3X@X'   6 h.).~.~.#.w 5 F R I.I.I.I.I.",
"I.I.I.E.T.E P A 9 < 9 < - . + X.2X5X;X&X-X-X-X,X;X;X-X$X>X4X*X{   . - 9 < < 9 C T R I.I.I.I.I.I.",
"I.I.I.E.E.E.P.P & o o @ X   + X.2X5X:X=X#X-X-X#X%X%X$X$X2X5X*X{   X o # o # 5 P I.I.I.I.I.I.I.I.",
"I.I.I.E.E.E.I.R C L L U w & + X.2X5X,X-X$X#X@X@X@X#X$X-X3X5X*X{   & S U L L U R I.I.I.I.I.I.I.I.",
"E.E.E.E.E.E.I.I.I.W.W.W./ 5 + X.4X6X>X,X-X#X@X#X#X#X-X>X4X6X2X{   5 ( W.I.I.P.I.I.I.E.E.E.I.I.I.",
"E.E.E.E.E.E.I.I.I.W.W.W.) 7 . { +X1XOXOXXX X X X X XXXOX+X1XoX'   7 ( W.I.I.I.I.I.I.E.E.E.I.I.I.",
"E.E.E.E.E.E.I.I.I.W.W.W.^ 9 X , 7.0.7.7.-.v l l v v :.7.7.7.7.>   5 ) W.I.I.I.I.I.I.E.E.E.I.I.I.",
"I.I.I.E.E.E.E.E.E.I.I.I.^ 9 . g ,.,.,.,.=.&.l &.&.&.=.,.,.,.=., X 5 ) W.W.W.W.E.E.E.I.I.I.I.I.I.",
"I.I.I.E.E.E.E.E.E.I.I.I.Y.^ S 6 d d g d g : g : : : d h h h d w F ^ R.W.W.W.W.E.E.E.I.I.I.I.I.I.",
"I.I.I.E.E.E.E.E.E.I.I.I.E.E.Y.F o       .             .     # C I.W.W.W.W.W.W.E.E.E.I.I.I.I.I.I.",
"I.I.I.I.I.I.I.I.I.E.E.E.E.E.Y.L $   o o X o X o o o o X X   % P I.I.I.I.W.W.W.I.I.I.E.E.E.I.I.I.",
"I.I.I.I.I.I.I.I.I.E.E.E.E.E.E.E.E.E.E.E.E.I.I.I.I.I.I.I.I.I.I.I.I.I.I.I.W.W.W.I.I.I.E.E.E.I.I.I.",
"I.I.I.I.I.I.I.I.I.E.E.E.E.E.E.E.E.E.E.E.E.I.I.I.I.I.I.I.I.I.I.I.I.I.I.I.W.W.W.I.I.I.E.E.E.I.I.I."
};
